<svg width="40" height="40" viewBox="0 0 40 40" fill="none" xmlns="http://www.w3.org/2000/svg">
<path d="M20 40C31.0457 40 40 31.0457 40 20C40 8.9543 31.0457 0 20 0C8.9543 0 0 8.9543 0 20C0 31.0457 8.9543 40 20 40Z" fill="#C1C7D0"/>
<path d="M32.1875 31.9184C29.0919 34.975 24.797 36.875 20.0512 36.875C15.2518 36.875 10.9154 34.9275 7.8125 31.8091V29.75C7.8125 27.128 9.99406 25 12.6875 25H27.3125C30.0059 25 32.1875 27.128 32.1875 29.75V31.9184Z" fill="white"/>
<path d="M19.9988 7.5C16.0293 7.5 12.8125 10.7168 12.8125 14.6863C12.8125 18.6582 16.0293 21.875 19.9988 21.875C23.9683 21.875 27.1875 18.6582 27.1875 14.6863C27.1875 10.7168 23.9683 7.5 19.9988 7.5Z" fill="white"/>
</svg>
