<svg width="18" height="18" viewBox="0 0 18 18" fill="none" xmlns="http://www.w3.org/2000/svg">
<path d="M5.4 14.4C4.41 14.4 3.609 15.21 3.609 16.2C3.609 17.19 4.41 18 5.4 18C6.39 18 7.2 17.19 7.2 16.2C7.2 15.21 6.39 14.4 5.4 14.4ZM0 0V1.8H1.8L5.04 8.631L3.825 10.836C3.681 11.088 3.6 11.385 3.6 11.7C3.6 12.69 4.41 13.5 5.4 13.5H16.2V11.7H5.778C5.652 11.7 5.553 11.601 5.553 11.475L5.58 11.367L6.39 9.9H13.095C13.77 9.9 14.364 9.531 14.67 8.973L17.892 3.132C17.964 3.006 18 2.853 18 2.7C18 2.205 17.595 1.8 17.1 1.8H3.789L2.943 0H0ZM14.4 14.4C13.41 14.4 12.609 15.21 12.609 16.2C12.609 17.19 13.41 18 14.4 18C15.39 18 16.2 17.19 16.2 16.2C16.2 15.21 15.39 14.4 14.4 14.4Z" fill="white"/>
</svg>
