<svg width="598" height="450" viewBox="0 0 598 450" fill="none" xmlns="http://www.w3.org/2000/svg">
<g clip-path="url(#clip0_12_406)">
<path opacity="0.18" d="M512.346 216.458C505.055 249.956 497.761 283.43 490.462 316.881C487.611 329.957 484.737 343.115 479.607 355.443C475.885 364.382 470.985 372.785 465.037 380.426C447.032 403.656 419.96 419.945 390.785 423.918C372.184 426.454 353.173 424.316 334.607 427.085C311.169 430.591 289.53 441.715 266.384 446.775C233.341 454.008 198.359 448.446 167.069 435.545C142.427 425.391 100.259 407.138 83.8193 380.449C80.5648 375.334 78.3752 369.615 77.3814 363.634C69.2025 310.934 79.3326 246.267 96.777 196.394C130.661 99.4067 218.981 23.5225 319.944 4.5222C358.233 -2.67593 398.73 -2.02156 435.091 11.9657C471.452 25.953 503.151 54.3015 516.132 91.04C530.281 131.015 521.378 175.022 512.346 216.458Z" fill="#DDD0F7"/>
<path d="M465.037 380.449C447.032 403.68 419.96 419.969 390.785 423.942C372.184 426.478 353.173 424.339 334.607 427.109C311.169 430.614 289.53 441.739 266.384 446.798C233.341 454.031 198.359 448.469 167.069 435.569C142.427 425.391 100.259 407.138 83.8193 380.449H465.037Z" fill="#DDD0F7"/>
<path d="M296.529 387.215C258.906 378.498 219.671 382.074 181.23 385.684C177.725 386.011 174.091 386.385 171.1 388.232C168.109 390.078 166.017 393.899 167.291 397.183C168.459 400.069 171.567 401.541 174.511 402.523C193.206 408.844 213.49 407.337 233.201 406.437C297.066 403.539 361.726 407.84 424.341 394.647C430.721 393.303 437.545 391.492 441.646 386.467C429.903 380.496 415.742 382.132 403.088 385.754C390.434 389.377 378.189 394.881 365.103 396.33C357.754 397.136 355.288 389.424 349.201 386.631C344.527 384.481 341.478 385.018 336.687 386.467C321.837 390.931 311.893 390.779 296.529 387.215Z" fill="url(#paint0_linear_12_406)"/>
<path d="M250.54 380.578C248.747 380.567 246.991 380.071 245.457 379.141C243.924 378.212 242.671 376.884 241.832 375.3C240.993 373.715 240.599 371.932 240.692 370.142C240.786 368.351 241.362 366.619 242.361 365.13C243.317 363.705 244.626 362.553 246.16 361.785C247.694 361.017 249.401 360.661 251.114 360.75C252.827 360.839 254.488 361.371 255.934 362.294C257.381 363.216 258.563 364.499 259.365 366.015C260.168 367.531 260.564 369.229 260.514 370.944C260.465 372.659 259.971 374.332 259.082 375.799C258.193 377.266 256.939 378.478 255.441 379.315C253.944 380.153 252.256 380.588 250.54 380.578ZM247.163 368.39C246.714 369.06 246.474 369.847 246.473 370.653C246.471 371.459 246.708 372.248 247.155 372.919C247.601 373.59 248.236 374.114 248.98 374.425C249.724 374.735 250.543 374.818 251.334 374.663C252.125 374.508 252.852 374.122 253.424 373.554C253.996 372.986 254.387 372.261 254.547 371.471C254.707 370.681 254.629 369.861 254.324 369.115C254.018 368.369 253.498 367.731 252.83 367.28C251.931 366.677 250.83 366.456 249.767 366.664C248.705 366.872 247.769 367.493 247.163 368.39Z" fill="#2E2E3F"/>
<path d="M177.853 380.578C176.059 380.571 174.3 380.077 172.764 379.149C171.228 378.22 169.973 376.892 169.134 375.306C168.294 373.72 167.901 371.935 167.996 370.143C168.091 368.351 168.671 366.618 169.674 365.13C170.63 363.705 171.939 362.553 173.473 361.785C175.007 361.017 176.714 360.661 178.427 360.75C180.14 360.839 181.801 361.371 183.247 362.294C184.694 363.216 185.876 364.499 186.679 366.015C187.481 367.531 187.877 369.229 187.828 370.944C187.778 372.659 187.284 374.332 186.395 375.799C185.506 377.266 184.252 378.478 182.755 379.315C181.257 380.153 179.569 380.588 177.853 380.578ZM174.488 368.39C174.038 369.059 173.796 369.847 173.794 370.654C173.791 371.461 174.028 372.25 174.474 372.923C174.921 373.595 175.556 374.119 176.301 374.43C177.045 374.741 177.865 374.824 178.657 374.668C179.448 374.513 180.176 374.126 180.748 373.557C181.32 372.988 181.71 372.262 181.869 371.471C182.028 370.68 181.949 369.86 181.642 369.114C181.335 368.368 180.813 367.729 180.143 367.28C179.246 366.678 178.146 366.457 177.086 366.665C176.026 366.873 175.091 367.493 174.488 368.39Z" fill="#2E2E3F"/>
<path d="M331.628 174.613C331.276 175.767 330.761 176.865 330.097 177.873C328.787 179.431 327.131 180.659 325.26 181.461C317.852 185.258 306.565 189.348 300.279 194.84C299.516 195.447 298.884 196.202 298.422 197.061C297.522 199.012 298.422 201.267 299.251 203.23C299.624 204.341 300.285 205.333 301.167 206.105C302.768 207.273 304.988 206.771 306.893 206.21C314.197 204.032 321.381 201.47 328.415 198.533C332.35 196.946 336.172 195.091 339.854 192.982C341.33 192.223 342.613 191.136 343.604 189.804C344.3 188.604 344.764 187.284 344.971 185.913C346.301 178.831 347.194 171.674 347.647 164.482L349.049 147.608C349.329 144.36 359.214 132.99 356.235 130.758C350.393 126.388 341.898 138.284 340.566 140.726C336.804 147.608 333.088 170.453 331.628 174.613Z" fill="#DDD0F7"/>
<path d="M331.628 174.613C331.276 175.767 330.761 176.865 330.097 177.873C328.787 179.431 327.131 180.659 325.26 181.461C317.852 185.258 306.565 189.348 300.279 194.84C299.516 195.447 298.884 196.202 298.422 197.061C297.522 199.012 298.422 201.267 299.251 203.23C299.624 204.341 300.285 205.333 301.167 206.105C302.768 207.273 304.988 206.771 306.893 206.21C314.197 204.032 321.381 201.47 328.415 198.533C332.35 196.946 336.172 195.091 339.854 192.982C341.33 192.223 342.613 191.136 343.604 189.804C344.3 188.604 344.764 187.284 344.971 185.913C346.301 178.831 347.194 171.674 347.647 164.482L349.049 147.608C349.329 144.36 359.214 132.99 356.235 130.758C350.393 126.388 341.898 138.284 340.566 140.726C336.804 147.608 333.088 170.453 331.628 174.613Z" fill="url(#paint1_linear_12_406)"/>
<path d="M422.367 357.371C423.311 358.879 423.802 360.628 423.781 362.407C423.67 363.076 423.42 363.713 423.045 364.277C422.671 364.842 422.181 365.32 421.608 365.681C421.035 366.042 420.392 366.278 419.721 366.372C419.05 366.466 418.367 366.417 417.717 366.228C416.658 365.79 415.697 365.147 414.889 364.335C405.109 355.641 397.363 344.926 390.352 333.825C388.46 330.81 386.625 327.76 385.013 324.594C379.565 313.862 376.704 302.005 376.659 289.97C376.585 289.28 376.754 288.586 377.138 288.007C377.54 287.599 378.058 287.326 378.621 287.224C383.459 285.869 390.995 285.74 395.271 288.895C400.074 292.401 398.917 303.443 398.707 308.468C398.462 310.611 398.677 312.782 399.337 314.836C400.213 316.594 401.401 318.178 402.843 319.51C412.646 330.039 416.046 344.634 422.367 357.371Z" fill="#F3BD8F"/>
<path d="M361.726 333.404C362.739 347.055 360.938 360.769 356.433 373.695C356.159 374.865 355.531 375.922 354.634 376.722C354.027 377.095 353.332 377.301 352.619 377.317C351.907 377.334 351.203 377.16 350.58 376.815C347.413 375.273 346.303 371.907 345.766 368.635C343.415 354.197 342.297 339.584 342.424 324.956C342.424 318.05 342.623 311.471 342.085 304.6C341.548 297.531 340.753 290.473 340.753 283.368C340.622 282.664 340.755 281.935 341.127 281.323C341.422 281.052 341.772 280.85 342.154 280.731C342.536 280.612 342.939 280.578 343.335 280.634C348.406 280.634 357.66 277.712 361.609 280.937C366.809 285.179 358.49 303.829 357.66 309.227C356.27 318.237 360.184 320.913 361.341 329.805C361.493 331.067 361.621 332.236 361.726 333.404Z" fill="#F5BD8D"/>
<path d="M336.196 283.45C336.077 284.819 336.419 286.188 337.166 287.341C337.944 288.144 338.939 288.705 340.029 288.954C345.59 290.683 351.456 291.045 357.263 291.407C359.039 291.513 361.002 291.559 362.369 290.438C363.216 289.615 363.846 288.595 364.203 287.47L370.653 271.683C370.17 277.254 370.026 282.85 370.221 288.439C370.127 289.638 370.481 290.829 371.214 291.781C372.153 292.505 373.327 292.855 374.509 292.763C383.46 293.1 392.421 292.449 401.23 290.823C404.642 278.238 404.735 264.929 403.041 252.005C402.375 246.968 401.382 241.839 398.706 237.515C398.053 236.333 397.123 235.327 395.996 234.582C394.309 233.773 392.439 233.422 390.574 233.565C377.044 233.425 363.304 233.11 349.855 235.026C345.661 235.622 343.464 236.931 342.003 241.032C339.899 247.495 338.432 254.149 337.622 260.897C336.549 268.365 336.072 275.906 336.196 283.45Z" fill="#2E2E3F"/>
<path d="M401.23 290.823L399.127 291.185C390.996 292.545 382.747 293.074 374.509 292.763C373.327 292.855 372.153 292.505 371.214 291.781C370.481 290.829 370.127 289.638 370.221 288.439C370.039 283.241 370.156 278.036 370.571 272.851C370.571 272.723 370.571 272.582 370.571 272.454C370.571 272.325 370.571 271.94 370.63 271.683C368.48 276.929 366.341 282.199 364.192 287.446C363.835 288.572 363.204 289.591 362.357 290.414C360.99 291.583 359.027 291.489 357.251 291.384H356.445C350.907 291.034 345.333 290.625 340.087 288.977C338.995 288.733 338 288.172 337.225 287.364C336.477 286.211 336.136 284.842 336.255 283.473C336.128 275.91 336.604 268.349 337.68 260.862C338.488 254.146 339.948 247.524 342.038 241.091C343.499 236.989 345.696 235.68 349.89 235.084C363.339 233.168 377.079 233.484 390.609 233.624C392.297 233.526 393.986 233.789 395.563 234.395C395.725 234.465 395.881 234.547 396.031 234.64C397.158 235.385 398.088 236.391 398.742 237.573C401.417 241.897 402.41 247.027 403.076 252.063C404.759 264.929 404.642 278.238 401.23 290.823Z" fill="url(#paint2_linear_12_406)"/>
<path d="M401.23 290.823L399.127 291.185C398.626 290.926 398.138 290.642 397.667 290.332C396.509 289.694 395.536 288.768 394.839 287.645C394.329 286.507 394.081 285.269 394.115 284.022C393.729 273.599 395.715 262.989 393.601 252.811C392.841 249.142 391.322 245.8 390.235 242.294C389.242 239.057 391.462 237.129 394.068 235.283C394.528 234.941 395.016 234.64 395.528 234.383C395.69 234.453 395.846 234.535 395.996 234.629C397.123 235.374 398.053 236.38 398.706 237.562C401.382 241.885 402.375 247.015 403.041 252.051C404.759 264.929 404.642 278.238 401.23 290.823Z" fill="url(#paint3_linear_12_406)"/>
<path d="M370.641 271.706C368.491 276.953 366.353 282.223 364.203 287.47C363.846 288.595 363.216 289.615 362.369 290.438C361.002 291.606 359.039 291.513 357.263 291.407H356.457C356.154 291.245 355.868 291.053 355.604 290.835C354.614 289.997 353.909 288.872 353.586 287.616C353.264 286.36 353.34 285.035 353.804 283.824C354.376 282.659 355.099 281.575 355.954 280.599C361.049 274.066 363.829 266.085 366.54 258.256C367.998 259.944 369.109 261.901 369.812 264.017C370.564 266.506 370.846 269.114 370.641 271.706Z" fill="url(#paint4_linear_12_406)"/>
<path d="M368.012 120.732C367.957 122.841 367.125 124.855 365.675 126.388C363.526 128.328 360.266 128.211 357.567 129.298C357.226 129.41 356.918 129.603 356.667 129.858C356.467 130.094 356.327 130.375 356.258 130.676C355.912 132.084 356.023 133.566 356.574 134.907C357.398 136.914 358.651 138.716 360.246 140.188C361.84 141.66 363.737 142.764 365.804 143.425C369.959 144.726 374.361 145.034 378.657 144.325C380.082 144.242 381.471 143.843 382.723 143.156C384.05 142.145 385.106 140.82 385.796 139.3C386.631 137.913 387.19 136.377 387.443 134.778C387.558 133.973 387.462 133.152 387.162 132.396C386.863 131.639 386.372 130.974 385.737 130.466C385.141 130.104 384.506 129.81 383.844 129.59C382.804 129.19 381.806 128.689 380.865 128.094C379.899 127.599 379.146 126.768 378.75 125.757C378.587 124.903 378.623 124.024 378.855 123.186C379.387 120.344 379.387 117.428 378.855 114.586C378.728 113.744 378.468 112.927 378.084 112.167C377.724 111.52 377.221 110.965 376.613 110.542C376.006 110.12 375.31 109.841 374.578 109.729C373.847 109.616 373.099 109.672 372.393 109.892C371.686 110.112 371.039 110.49 370.501 110.998C367.744 113.511 368.339 117.484 368.012 120.732Z" fill="#F3BD8F"/>
<path d="M355.078 105.623C354.92 107.561 355.082 109.511 355.557 111.396C356.936 115.871 361.668 118.757 366.353 118.944C367.89 119.065 369.432 118.77 370.816 118.091C371.609 117.639 372.34 117.085 372.99 116.444C376.261 113.452 379.276 109.877 380.269 105.553C380.608 103.913 380.749 102.238 380.69 100.563C380.731 98.098 380.303 95.6472 379.428 93.342C378.554 91.3053 377.168 89.5292 375.406 88.1861C373.643 86.8429 371.563 85.9784 369.368 85.6765C364.846 85.1039 360.605 87.3942 357.298 90.2337C355.639 91.6593 355.884 94.4638 355.674 96.6022C355.382 99.5819 355.183 102.608 355.078 105.623Z" fill="#F3BD8F"/>
<path d="M355.639 80.6985C354.377 82.8603 353.524 85.3726 351.573 86.9268C350.767 87.5578 349.82 88.0135 349.072 88.7029C348.111 89.7175 347.55 91.0467 347.494 92.4436C347.438 93.8405 347.891 95.2102 348.769 96.2984C349.691 97.3504 350.887 98.1259 352.224 98.5385C353.56 98.9511 354.985 98.9846 356.34 98.6354C359.054 97.8777 361.374 96.1088 362.825 93.6926C363.794 92.1735 364.659 90.3272 366.33 89.7663C367.071 89.598 367.841 89.6066 368.577 89.7913C369.314 89.9761 369.997 90.3318 370.571 90.8297C371.798 91.7177 372.826 92.8863 374.076 93.6809C374.823 94.064 375.538 94.5055 376.215 95.0013C378.224 96.7424 377.92 99.8857 377.453 102.503C378.294 102.76 378.458 101.253 379.194 100.774C379.93 100.295 380.783 100.996 380.912 101.779C380.954 102.57 380.728 103.353 380.269 103.999C378.353 107.353 376.086 110.648 375.443 114.446C375.314 114.951 375.338 115.485 375.513 115.976C375.9 116.561 376.492 116.978 377.173 117.145C378.342 117.651 379.603 117.91 380.876 117.904C381.513 117.894 382.139 117.733 382.701 117.435C383.264 117.136 383.748 116.708 384.113 116.187C384.474 115.51 384.692 114.766 384.756 114.002C384.915 111.468 385.258 108.949 385.784 106.465C387.198 101.58 391.392 97.3267 390.773 92.2903C390.319 90.0139 389.365 87.8667 387.98 86.0036C387.172 84.588 386.182 83.2839 385.036 82.1241C383.909 81.1594 382.67 80.3354 381.344 79.6702C378.608 78.0384 375.612 76.8882 372.487 76.2698C368.783 75.7089 365.477 76.9125 361.855 77.0878C359.004 77.2163 357.228 77.9057 355.639 80.6985Z" fill="#2E2E3F"/>
<path d="M398.017 238.578C395.923 240.035 393.526 240.997 391.007 241.394C377.571 244.374 363.643 244.35 350.217 241.324C347.413 240.682 344.294 239.653 343.078 237.036C342.534 235.599 342.33 234.055 342.482 232.525C342.802 218.082 343.121 203.635 343.441 189.185C343.803 172.767 344.165 156.291 346.572 140.048C347.281 136.691 348.613 133.497 350.498 130.63C352.063 128.491 359.156 129.636 365.08 125.804C366.704 124.752 363.175 130.186 368.48 132.429C373.983 134.766 380.164 123.817 383.505 128.211C385.387 130.665 391.369 128.842 393.262 131.284C394.781 133.247 395.715 137.395 396.311 142.397C397.573 153.019 397.258 167.438 397.48 172.685C398.473 191.043 396.931 214.46 402.995 229.616C404.385 232.911 400.751 236.417 398.017 238.578Z" fill="#DDD0F7"/>
<path d="M398.017 238.578C395.923 240.035 393.526 240.997 391.007 241.394C387.652 242.138 384.258 242.696 380.841 243.065L379.883 242.937C382.384 234.757 382.501 226.157 382.43 217.65C382.43 212.976 382.29 208.243 382.197 203.546C382.138 200.578 382.033 197.458 380.503 194.922C378.972 192.386 375.49 190.774 372.943 192.305C377.325 189.664 380.912 178.493 382.711 173.912C385.299 167.276 387.11 160.363 388.109 153.311C388.787 148.473 388.53 139.966 395.937 142.257L396.346 142.397C397.608 153.019 397.293 167.438 397.515 172.685C398.508 191.043 396.966 214.46 403.03 229.616C404.385 232.911 400.751 236.417 398.017 238.578Z" fill="url(#paint5_linear_12_406)"/>
<path d="M356.153 369.979C356.576 370.015 356.969 370.212 357.251 370.528C357.429 370.89 357.498 371.296 357.45 371.697C357.45 374.034 358.934 376.149 358.852 378.463C358.794 380.531 357.508 382.471 357.684 384.539C357.684 384.948 357.789 385.427 357.497 385.708C357.307 385.864 357.075 385.961 356.831 385.988C350.965 387.11 345.072 388.088 339.152 388.921C338.06 389.212 336.898 389.087 335.893 388.57C335.438 388.223 335.08 387.764 334.853 387.238C333.252 383.978 334.677 379.982 336.851 377.072C342.167 369.909 347.296 368.191 356.153 369.979Z" fill="#2E2E3F"/>
<path d="M429.985 369.068C429.572 370.931 428.512 372.587 426.994 373.742C423.232 377.217 418.931 380.059 414.258 382.155C413.317 382.683 412.236 382.912 411.162 382.81C410.347 382.574 409.632 382.077 409.127 381.395C408.623 380.713 408.356 379.884 408.369 379.035C408.427 377.339 408.866 375.677 409.655 374.174C411.91 368.963 413.475 361.32 419.493 359.252C424.75 357.488 430.546 363.879 429.985 369.068Z" fill="#2E2E3F"/>
<path d="M356.153 369.979C356.576 370.015 356.969 370.212 357.251 370.528C357.429 370.89 357.498 371.296 357.45 371.697C357.45 374.034 358.934 376.149 358.852 378.463C358.794 380.531 357.508 382.471 357.684 384.539C357.684 384.948 357.789 385.427 357.497 385.708C357.307 385.864 357.075 385.961 356.831 385.988C350.965 387.11 345.072 388.088 339.152 388.921C338.06 389.212 336.898 389.087 335.893 388.57C335.438 388.223 335.08 387.764 334.853 387.238C333.252 383.978 334.677 379.982 336.851 377.072C342.167 369.909 347.296 368.191 356.153 369.979Z" fill="url(#paint6_linear_12_406)"/>
<path d="M426.994 373.765C423.232 377.241 418.931 380.082 414.258 382.179C413.317 382.707 412.236 382.935 411.162 382.833" fill="url(#paint7_linear_12_406)"/>
<path d="M386.555 173.316C386.757 174.781 386.601 176.272 386.099 177.663C385.258 179.591 383.307 180.76 381.426 181.8L339.982 205.252C338.042 206.35 335.963 207.589 335.133 209.669C333.31 214.343 339.024 218.538 343.99 218.912C349.189 219.298 354.307 217.743 359.237 216.026C374.814 210.654 389.857 203.847 404.175 195.693C405.944 195.036 407.427 193.779 408.366 192.142C409.305 190.505 409.641 188.59 409.316 186.731C409.356 175.29 408.481 163.864 406.698 152.563C405.729 146.381 404.362 139.92 400.19 135.234C394.021 128.223 382.758 128.012 381.788 138.284C380.713 149.945 385.772 161.841 386.555 173.316Z" fill="#DDD0F7"/>
<path d="M386.555 173.316C386.757 174.781 386.601 176.272 386.099 177.663C385.258 179.591 383.307 180.76 381.426 181.8L339.982 205.252C338.042 206.35 335.963 207.589 335.133 209.669C333.31 214.343 339.024 218.538 343.99 218.912C349.189 219.298 354.307 217.743 359.237 216.026C374.814 210.654 389.857 203.847 404.175 195.693C405.944 195.036 407.427 193.779 408.366 192.142C409.305 190.505 409.641 188.59 409.316 186.731C409.356 175.29 408.481 163.864 406.698 152.563C405.729 146.381 404.362 139.92 400.19 135.234C394.021 128.223 382.758 128.012 381.788 138.284C380.713 149.945 385.772 161.841 386.555 173.316Z" fill="url(#paint8_linear_12_406)"/>
<path d="M329.805 209.143C326.815 209.134 323.933 210.262 321.743 212.298C320.676 213.338 319.957 214.682 319.685 216.147C319.413 217.611 319.601 219.124 320.224 220.478C320.668 221.384 321.441 222.087 322.386 222.441C323.22 222.671 324.104 222.642 324.921 222.359C327.258 221.646 329.186 219.835 331.476 218.854C332.031 218.581 332.663 218.511 333.264 218.655C333.65 218.851 334.017 219.082 334.362 219.344C334.843 219.607 335.379 219.754 335.927 219.772C336.475 219.79 337.019 219.68 337.517 219.449C338.507 218.97 339.341 218.221 339.924 217.288C340.77 216.116 341.183 214.687 341.092 213.245C340.858 211.024 339.573 210.312 337.657 210.09C335.028 209.809 332.504 209.05 329.805 209.143Z" fill="#F3BD8F"/>
<path d="M291.306 201.933C290.201 203.289 289.444 204.893 289.098 206.607C288.914 207.419 288.942 208.264 289.179 209.061C289.517 209.837 290.079 210.495 290.793 210.948C291.508 211.402 292.341 211.632 293.187 211.609C294.882 211.537 296.529 211.026 297.966 210.125C300.636 208.585 303.186 206.847 305.596 204.925C306.095 204.585 306.54 204.171 306.916 203.698C307.364 202.967 307.549 202.106 307.44 201.256C307.332 200.406 306.937 199.618 306.32 199.024C302.371 195.062 294.274 198.252 291.306 201.933Z" fill="#F3BD8F"/>
<path d="M253.847 336.91H155.373L117.154 232.794H283.489L253.847 336.91ZM159.451 331.067H249.418L275.743 238.613H125.52L159.451 331.067Z" fill="#DDD0F7"/>
<path d="M292.708 336.91H194.223L156.016 232.794H325.202L292.708 336.91ZM198.324 331.067H288.292L314.616 238.613H164.44L198.324 331.067Z" fill="#DDD0F7"/>
<path d="M293.292 336.968H246.649L267.54 263.293L284.786 209.786L331.827 210.417L293.292 336.968ZM254.372 331.126H288.969L324.022 216.154L289.063 215.687L273.102 264.987L254.372 331.126Z" fill="#DDD0F7"/>
<path d="M293.199 366.065H179.022V360.222H287.357V334.012H293.199V366.065Z" fill="#DDD0F7"/>
<path d="M254.98 366.065H162.021V360.222H249.138V334.012H254.98V366.065Z" fill="#DDD0F7"/>
<path d="M274.364 380.578C272.402 380.578 270.484 379.996 268.853 378.906C267.222 377.816 265.95 376.266 265.199 374.453C264.448 372.641 264.252 370.646 264.635 368.722C265.018 366.797 265.962 365.029 267.35 363.642C268.737 362.254 270.504 361.31 272.429 360.927C274.353 360.544 276.348 360.74 278.16 361.491C279.973 362.242 281.522 363.514 282.612 365.145C283.702 366.777 284.284 368.695 284.284 370.657C284.284 373.288 283.239 375.812 281.378 377.672C279.518 379.533 276.995 380.578 274.364 380.578ZM274.364 366.555C273.558 366.555 272.769 366.795 272.099 367.243C271.428 367.691 270.905 368.328 270.597 369.073C270.288 369.818 270.207 370.638 270.365 371.429C270.522 372.22 270.91 372.947 271.481 373.517C272.051 374.088 272.777 374.476 273.568 374.633C274.359 374.791 275.179 374.71 275.924 374.401C276.67 374.093 277.306 373.57 277.755 372.899C278.203 372.229 278.442 371.44 278.442 370.634C278.436 369.556 278.003 368.525 277.239 367.765C276.475 367.005 275.441 366.579 274.364 366.579V366.555Z" fill="#2E2E3F"/>
<path d="M203.5 380.578C201.705 380.571 199.946 380.077 198.41 379.149C196.875 378.22 195.62 376.892 194.78 375.306C193.94 373.72 193.547 371.935 193.642 370.143C193.738 368.351 194.318 366.618 195.321 365.13C196.277 363.705 197.586 362.553 199.12 361.785C200.654 361.017 202.361 360.661 204.074 360.75C205.787 360.839 207.448 361.371 208.894 362.294C210.34 363.216 211.522 364.499 212.325 366.015C213.128 367.531 213.524 369.229 213.474 370.944C213.424 372.659 212.931 374.332 212.042 375.799C211.153 377.266 209.898 378.478 208.401 379.315C206.904 380.153 205.215 380.588 203.5 380.578ZM200.123 368.39C199.673 369.059 199.431 369.847 199.429 370.654C199.426 371.461 199.663 372.25 200.109 372.923C200.556 373.595 201.191 374.119 201.936 374.43C202.68 374.741 203.5 374.824 204.292 374.668C205.083 374.513 205.811 374.126 206.383 373.557C206.955 372.988 207.345 372.262 207.504 371.471C207.663 370.68 207.584 369.86 207.277 369.114C206.97 368.368 206.448 367.729 205.778 367.28C204.88 366.681 203.781 366.462 202.722 366.669C201.662 366.877 200.728 367.496 200.123 368.39Z" fill="#2E2E3F"/>
<path d="M314.896 253.664H130.229V258.069H314.896V253.664Z" fill="#DDD0F7"/>
<path d="M310.071 268.469H134.178V272.875H310.071V268.469Z" fill="#DDD0F7"/>
<path d="M305.245 283.274H139.88V287.68H305.245V283.274Z" fill="#DDD0F7"/>
<path d="M300.42 298.08H145.582V302.485H300.42V298.08Z" fill="#DDD0F7"/>
<path d="M295.594 312.885H151.283V317.29H295.594V312.885Z" fill="#DDD0F7"/>
<path d="M141.938 234.504L137.8 236.013L173.322 333.408L177.461 331.899L141.938 234.504Z" fill="#DDD0F7"/>
<path d="M193.309 234.628L189.083 235.873L217.375 331.947L221.601 330.703L193.309 234.628Z" fill="#DDD0F7"/>
<path d="M236.5 233.865L232.097 234.013L235.384 332.055L239.786 331.908L236.5 233.865Z" fill="#DDD0F7"/>
<path d="M287.121 236.564L257.531 332.638L261.741 333.935L291.331 237.861L287.121 236.564Z" fill="#DDD0F7"/>
</g>
<defs>
<linearGradient id="paint0_linear_12_406" x1="305.818" y1="336.629" x2="302.534" y2="451.776" gradientUnits="userSpaceOnUse">
<stop offset="0.01"/>
<stop offset="0.13" stop-opacity="0.69"/>
<stop offset="1" stop-opacity="0"/>
</linearGradient>
<linearGradient id="paint1_linear_12_406" x1="343.639" y1="194.034" x2="333.776" y2="177.255" gradientUnits="userSpaceOnUse">
<stop offset="0.01"/>
<stop offset="0.13" stop-opacity="0.69"/>
<stop offset="1" stop-opacity="0"/>
</linearGradient>
<linearGradient id="paint2_linear_12_406" x1="386.321" y1="233.507" x2="357.807" y2="296.231" gradientUnits="userSpaceOnUse">
<stop offset="0.01"/>
<stop offset="0.13" stop-opacity="0.69"/>
<stop offset="1" stop-opacity="0"/>
</linearGradient>
<linearGradient id="paint3_linear_12_406" x1="389.99" y1="262.755" x2="404.128" y2="262.755" gradientUnits="userSpaceOnUse">
<stop offset="0.01"/>
<stop offset="0.13" stop-opacity="0.69"/>
<stop offset="1" stop-opacity="0"/>
</linearGradient>
<linearGradient id="paint4_linear_12_406" x1="356.013" y1="269.977" x2="384.337" y2="295.167" gradientUnits="userSpaceOnUse">
<stop offset="0.01"/>
<stop offset="0.13" stop-opacity="0.69"/>
<stop offset="1" stop-opacity="0"/>
</linearGradient>
<linearGradient id="paint5_linear_12_406" x1="448.306" y1="195.904" x2="315.702" y2="188.438" gradientUnits="userSpaceOnUse">
<stop offset="0.01"/>
<stop offset="0.13" stop-opacity="0.69"/>
<stop offset="1" stop-opacity="0"/>
</linearGradient>
<linearGradient id="paint6_linear_12_406" x1="334.163" y1="379.164" x2="358.864" y2="379.164" gradientUnits="userSpaceOnUse">
<stop offset="0.01"/>
<stop offset="0.13" stop-opacity="0.69"/>
<stop offset="1" stop-opacity="0"/>
</linearGradient>
<linearGradient id="paint7_linear_12_406" x1="411.162" y1="378.323" x2="426.994" y2="378.323" gradientUnits="userSpaceOnUse">
<stop offset="0.01"/>
<stop offset="0.13" stop-opacity="0.69"/>
<stop offset="1" stop-opacity="0"/>
</linearGradient>
<linearGradient id="paint8_linear_12_406" x1="390.212" y1="217.288" x2="369.481" y2="177.15" gradientUnits="userSpaceOnUse">
<stop offset="0.01"/>
<stop offset="0.13" stop-opacity="0.69"/>
<stop offset="1" stop-opacity="0"/>
</linearGradient>
<clipPath id="clip0_12_406">
<rect width="597" height="450" fill="white" transform="translate(0.5)"/>
</clipPath>
</defs>
</svg>
