<svg width="648" height="489" viewBox="0 0 648 489" fill="none" xmlns="http://www.w3.org/2000/svg">
<g clip-path="url(#clip0_12_581)">
<path opacity="0.41" d="M535.266 373.934C533.684 382.138 531.653 390.404 527.517 397.623C527.131 398.296 526.744 398.957 526.271 399.593V399.306L117.07 398.184V399.954C115.824 367.064 108.349 334.536 108.261 301.609C108.234 282.587 110.705 263.644 115.612 245.267C120.234 227.962 127.099 211.055 137.726 196.643C166.729 157.282 217.722 142.62 259.022 116.487C302.964 88.6968 318.25 26.3082 366.54 7.07049C391.993 -3.10319 421.769 -1.20809 446.312 10.9854C470.855 23.1788 490.129 45.2717 500.071 70.8305C512.803 103.608 510.523 139.964 514.597 174.886C519.73 219.022 535.141 261.413 538.879 305.598C540.814 328.435 539.598 351.429 535.266 373.934V373.934Z" fill="#DDD0F7"/>
<path opacity="0.66" d="M526.321 399.356V399.879C499.36 454.513 436.096 485.982 406.606 486.755L200.529 488.5C153.573 488.5 116.97 449.252 116.97 402.261V399.954V398.184L526.321 399.356Z" fill="#DDD0F7"/>
<path d="M170.866 419.217C168.449 420.139 165.508 422.321 166.68 424.628C167.2 425.438 167.963 426.062 168.86 426.411C193.478 439.402 222.307 441.023 250.102 442.394L358.491 447.693C375.722 448.528 393.737 449.227 409.385 441.983C415.341 439.01 420.995 435.465 426.266 431.398C433.741 426.012 441.133 420.555 448.442 415.028C450.274 413.656 452.18 412.06 452.591 409.804C453.002 407.21 450.996 404.717 448.579 403.682C446.082 402.829 443.429 402.531 440.805 402.809C416.86 403.64 392.906 403.977 368.944 403.819C353.745 403.732 338.496 403.47 323.408 401.55C298.84 398.421 275.418 395.067 250.625 398.184C223.441 401.587 196.331 409.43 170.866 419.217Z" fill="url(#paint0_linear_12_581)"/>
<path d="M429.518 72.389H285.322C272.566 72.389 262.224 82.738 262.224 95.5042V381.227C262.224 393.994 272.566 404.343 285.322 404.343H429.518C442.275 404.343 452.616 393.994 452.616 381.227V95.5042C452.616 82.738 442.275 72.389 429.518 72.389Z" fill="#DDD0F7"/>
<path d="M429.518 72.389H285.322C272.566 72.389 262.224 82.738 262.224 95.5042V381.227C262.224 393.994 272.566 404.343 285.322 404.343H429.518C442.275 404.343 452.616 393.994 452.616 381.227V95.5042C452.616 82.738 442.275 72.389 429.518 72.389Z" fill="url(#paint1_linear_12_581)"/>
<path d="M417.67 72.389H273.474C260.718 72.389 250.376 82.738 250.376 95.5042V381.227C250.376 393.994 260.718 404.343 273.474 404.343H417.67C430.426 404.343 440.768 393.994 440.768 381.227V95.5042C440.768 82.738 430.426 72.389 417.67 72.389Z" fill="#DDD0F7"/>
<path d="M426.403 110.391V354.646C426.403 359.515 424.471 364.184 421.032 367.628C417.594 371.072 412.929 373.008 408.064 373.011H283.977C281.568 373.011 279.182 372.536 276.956 371.613C274.73 370.69 272.708 369.337 271.005 367.631C269.302 365.926 267.951 363.901 267.03 361.673C266.109 359.445 265.636 357.057 265.638 354.646V110.391C265.636 108.405 266.026 106.438 266.783 104.602C267.541 102.767 268.653 101.099 270.055 99.6932C271.457 98.2877 273.123 97.1723 274.955 96.4108C276.788 95.6493 278.753 95.2565 280.738 95.2549H411.278C415.289 95.2582 419.134 96.8539 421.97 99.6917C424.805 102.529 426.4 106.377 426.403 110.391V110.391Z" fill="white"/>
<path d="M426.403 273.519V354.646C426.403 359.515 424.471 364.184 421.032 367.628C417.594 371.072 412.929 373.008 408.064 373.011H299.463V273.519H426.403Z" fill="#DDD0F7"/>
<path d="M426.391 273.519V354.646C426.387 359.512 424.456 364.177 421.021 367.62C417.585 371.063 412.926 373.001 408.064 373.011H299.463V273.519H426.391Z" fill="url(#paint2_linear_12_581)"/>
<path d="M426.391 320.31V354.646C426.398 359.359 424.586 363.893 421.332 367.301H303.412V320.31H426.391Z" fill="url(#paint3_linear_12_581)"/>
<path d="M263.757 95.4169L224.998 136.897H397.088L431.623 94.831L263.757 95.4169Z" fill="#DDD0F7"/>
<path d="M285.011 95.2549L250.289 136.648L397.4 136.797H224.998L226.045 135.812L239.911 122.809L265.526 95.2424L285.011 95.2549Z" fill="url(#paint4_linear_12_581)"/>
<path d="M335.966 94.6564L301.481 136.648L448.592 136.797H276.19L277.237 135.812L310.04 95.2424L335.966 94.6564Z" fill="url(#paint5_linear_12_581)"/>
<path d="M385.327 94.6564L350.842 136.648L325.551 136.797L326.598 135.812L359.401 95.2424L385.327 94.6564Z" fill="url(#paint6_linear_12_581)"/>
<path d="M431.872 94.6564L397.387 136.648L372.096 136.797L373.143 135.812L405.946 95.2424L431.872 94.6564Z" fill="url(#paint7_linear_12_581)"/>
<path d="M301.07 136.885H325.75C325.337 139.866 323.86 142.596 321.592 144.573C319.324 146.549 316.418 147.638 313.41 147.638C310.403 147.638 307.497 146.549 305.229 144.573C302.961 142.596 301.484 139.866 301.07 136.885V136.885Z" fill="#DDD0F7"/>
<path d="M276.003 136.885H300.684C300.27 139.866 298.793 142.596 296.525 144.573C294.257 146.549 291.351 147.638 288.344 147.638C285.336 147.638 282.43 146.549 280.162 144.573C277.894 142.596 276.417 139.866 276.003 136.885V136.885Z" fill="#DDD0F7"/>
<path d="M375.821 136.735C375.435 139.728 373.976 142.479 371.717 144.478C369.457 146.476 366.55 147.587 363.535 147.604C360.519 147.62 357.6 146.542 355.319 144.569C353.037 142.595 351.548 139.861 351.129 136.872H375.672L375.821 136.735Z" fill="#DDD0F7"/>
<path d="M397.275 136.735C396.677 142.969 392.092 147.794 386.536 147.794C380.979 147.794 376.457 143.019 375.809 136.872H397.188L397.275 136.735Z" fill="#DDD0F7"/>
<path d="M251.086 136.885H275.767C275.353 139.866 273.876 142.596 271.608 144.573C269.34 146.549 266.434 147.638 263.427 147.638C260.419 147.638 257.513 146.549 255.245 144.573C252.977 142.596 251.5 139.866 251.086 136.885V136.885Z" fill="#DDD0F7"/>
<path d="M326.099 136.885H350.755C350.341 139.866 348.864 142.596 346.596 144.573C344.328 146.549 341.422 147.638 338.415 147.638C335.407 147.638 332.501 146.549 330.233 144.573C327.965 142.596 326.488 139.866 326.074 136.885H326.099Z" fill="#DDD0F7"/>
<path d="M225.995 136.885H250.675C250.262 139.866 248.784 142.596 246.516 144.573C244.248 146.549 241.342 147.638 238.335 147.638C235.328 147.638 232.422 146.549 230.154 144.573C227.885 142.596 226.408 139.866 225.995 136.885V136.885Z" fill="#DDD0F7"/>
<path d="M301.07 136.885H325.75C325.337 139.866 323.86 142.596 321.592 144.573C319.324 146.549 316.418 147.638 313.41 147.638C310.403 147.638 307.497 146.549 305.229 144.573C302.961 142.596 301.484 139.866 301.07 136.885V136.885Z" fill="url(#paint8_linear_12_581)"/>
<path d="M276.003 136.885H300.684C300.27 139.866 298.793 142.596 296.525 144.573C294.257 146.549 291.351 147.638 288.344 147.638C285.336 147.638 282.43 146.549 280.162 144.573C277.894 142.596 276.417 139.866 276.003 136.885V136.885Z" fill="url(#paint9_linear_12_581)"/>
<path d="M375.809 136.885C375.422 139.878 373.964 142.628 371.704 144.627C369.445 146.626 366.538 147.737 363.522 147.753C360.507 147.77 357.588 146.692 355.306 144.718C353.025 142.745 351.536 140.01 351.116 137.022H375.672L375.809 136.885Z" fill="url(#paint10_linear_12_581)"/>
<path d="M397.2 136.81C396.615 143.044 392.042 147.881 386.498 147.881C380.954 147.881 376.457 143.094 375.809 136.959H397.113L397.2 136.81Z" fill="url(#paint11_linear_12_581)"/>
<path d="M251.086 136.885H275.767C275.353 139.866 273.876 142.596 271.608 144.573C269.34 146.549 266.434 147.638 263.427 147.638C260.419 147.638 257.513 146.549 255.245 144.573C252.977 142.596 251.5 139.866 251.086 136.885V136.885Z" fill="url(#paint12_linear_12_581)"/>
<path d="M326.099 136.885H350.755C350.341 139.866 348.864 142.596 346.596 144.573C344.328 146.549 341.422 147.638 338.415 147.638C335.407 147.638 332.501 146.549 330.233 144.573C327.965 142.596 326.488 139.866 326.074 136.885H326.099Z" fill="url(#paint13_linear_12_581)"/>
<path d="M225.995 136.885H250.675C250.262 139.866 248.784 142.596 246.516 144.573C244.248 146.549 241.342 147.638 238.335 147.638C235.328 147.638 232.422 146.549 230.154 144.573C227.885 142.596 226.408 139.866 225.995 136.885V136.885Z" fill="url(#paint14_linear_12_581)"/>
<path d="M250.663 136.885L284.774 95.5541L310.04 95.2424L275.692 136.885H250.663Z" fill="url(#paint15_linear_12_581)"/>
<path d="M300.846 136.885L334.957 95.5541L358.678 95.018L325.875 136.885H300.846Z" fill="url(#paint16_linear_12_581)"/>
<path d="M351.029 136.885L385.128 95.5541L408.861 95.018L376.046 136.885H351.029Z" fill="url(#paint17_linear_12_581)"/>
<path d="M397.113 136.959L430.203 130.401L431.997 94.6564L397.113 136.959Z" fill="#DDD0F7"/>
<path d="M397.387 136.61L430.477 130.052L432.284 94.3073L397.387 136.61Z" fill="url(#paint18_linear_12_581)"/>
<path d="M351.639 380.779H325.128C321.233 380.779 318.076 383.938 318.076 387.835C318.076 391.733 321.233 394.892 325.128 394.892H351.639C355.534 394.892 358.691 391.733 358.691 387.835C358.691 383.938 355.534 380.779 351.639 380.779Z" fill="url(#paint19_linear_12_581)"/>
<path d="M255.085 235.854C273.175 235.854 287.839 221.179 287.839 203.076C287.839 184.973 273.175 170.298 255.085 170.298C236.996 170.298 222.332 184.973 222.332 203.076C222.332 221.179 236.996 235.854 255.085 235.854Z" fill="#DDD0F7"/>
<path d="M249.267 235.854C267.357 235.854 282.021 221.179 282.021 203.076C282.021 184.973 267.357 170.298 249.267 170.298C231.178 170.298 216.514 184.973 216.514 203.076C216.514 221.179 231.178 235.854 249.267 235.854Z" fill="url(#paint20_linear_12_581)"/>
<path d="M217.498 301.683C233.516 301.683 246.502 288.688 246.502 272.658C246.502 256.628 233.516 243.633 217.498 243.633C201.48 243.633 188.495 256.628 188.495 272.658C188.495 288.688 201.48 301.683 217.498 301.683Z" fill="#DDD0F7"/>
<path d="M212.34 301.683C228.358 301.683 241.344 288.688 241.344 272.658C241.344 256.628 228.358 243.633 212.34 243.633C196.322 243.633 183.337 256.628 183.337 272.658C183.337 288.688 196.322 301.683 212.34 301.683Z" fill="url(#paint21_linear_12_581)"/>
<path d="M355.85 237.462C351.789 241.826 349.434 247.436 347.129 252.972L340.638 268.706C340.429 269.065 340.301 269.465 340.265 269.879C340.228 270.293 340.283 270.71 340.427 271.1C340.673 271.413 340.984 271.667 341.339 271.846C341.695 272.025 342.085 272.123 342.482 272.135C345.786 272.635 349.112 272.968 352.449 273.132C369.301 274.179 386.183 274.566 403.093 274.292C405.12 274.399 407.146 274.054 409.023 273.282C413.683 270.925 414.007 264.442 413.222 259.293C412.281 253.293 410.607 247.43 408.239 241.838C407.407 239.622 406.183 237.573 404.626 235.791C400.763 231.739 394.659 231.091 389.04 230.929C378.375 230.667 363.849 228.847 355.85 237.462Z" fill="#DDD0F7"/>
<path d="M343.454 233.859C343.348 233.288 343.035 232.776 342.575 232.421C342.116 232.067 341.541 231.895 340.962 231.939C339.494 231.874 338.024 231.928 336.564 232.101C335.626 232.127 334.723 232.464 333.998 233.061C333.473 233.696 333.148 234.473 333.064 235.293C331.88 241.713 333.25 248.296 333.774 254.805C334.135 259.243 334.172 263.956 336.564 267.696C337.646 269.351 339.125 270.708 340.867 271.642C342.608 272.576 344.556 273.059 346.531 273.045C348.201 273.045 350.094 272.434 350.73 270.9C350.988 270.126 351.06 269.302 350.942 268.494C350.082 256.812 348.4 244.606 343.454 233.859Z" fill="#DDD0F7"/>
<path d="M342.607 228.136C343.392 226.44 344.463 224.894 345.398 223.274C345.663 222.867 345.838 222.408 345.908 221.927C345.938 221.678 345.892 221.426 345.777 221.204C345.661 220.981 345.481 220.799 345.261 220.68C344.326 220.319 343.579 221.615 342.607 221.815C341.635 222.014 340.937 221.241 340.302 220.568C337.531 217.807 334.258 215.603 330.659 214.072C330.474 213.961 330.268 213.888 330.054 213.858C329.84 213.828 329.622 213.842 329.413 213.898C329.027 214.072 328.915 214.758 329.314 214.883C328.928 214.913 328.543 214.817 328.217 214.609C327.868 214.459 327.358 214.447 327.196 214.796C327.034 215.145 327.507 215.656 327.382 216.042C326.959 216.052 326.536 215.985 326.137 215.843C325.713 215.768 325.152 215.843 325.078 216.329C325.046 216.49 325.046 216.655 325.078 216.815C325.134 217.467 325.134 218.122 325.078 218.773C325.273 220.512 326 222.149 327.158 223.461C329.468 226.336 331.551 229.388 333.388 232.587C333.828 233.632 334.42 234.607 335.144 235.48C336.166 236.577 339.953 238.135 340.95 236.228C341.423 235.33 341.037 233.36 341.211 232.313C341.491 230.865 341.961 229.461 342.607 228.136V228.136Z" fill="url(#paint22_linear_12_581)"/>
<path d="M394.011 254.468C394.255 255.258 394.322 256.092 394.208 256.91C394.094 257.729 393.801 258.513 393.351 259.206C392.267 260.527 390.373 260.789 388.666 260.876C380.356 261.313 371.872 259.879 363.749 261.774C362.582 261.922 361.505 262.479 360.709 263.345C360.015 264.575 359.814 266.024 360.149 267.397L360.846 273.344L352.748 271.873C352.444 271.832 352.152 271.73 351.888 271.574C351.505 271.202 351.278 270.698 351.253 270.165C350.59 267.065 350.301 263.896 350.393 260.727C350.502 257.531 351.758 254.481 353.932 252.137C355.991 250.306 358.475 249.021 361.158 248.396C367.387 246.601 373.94 246.077 380.431 245.554C383.234 245.329 387.906 244.706 390.311 246.613C392.317 248.234 393.513 252.087 394.011 254.468Z" fill="url(#paint23_linear_12_581)"/>
<path d="M359.725 211.542C359.502 213.578 359.573 215.635 359.937 217.651C360.376 219.419 361.23 221.058 362.428 222.43C363.626 223.803 365.134 224.87 366.826 225.543C369.318 226.528 372.271 226.79 373.977 228.822C375.684 230.854 375.597 233.56 377.354 235.255C378.266 236.018 379.404 236.458 380.592 236.505C381.78 236.553 382.95 236.205 383.919 235.517C385.833 234.071 387.115 231.94 387.495 229.57C387.851 227.223 387.988 224.848 387.906 222.476C387.943 219.311 388.206 216.153 388.691 213.025C389.114 210.849 389.377 208.645 389.476 206.43C389.455 203.868 388.961 201.331 388.018 198.949C385.913 193.401 381.577 188.401 375.834 186.93C373.208 186.281 370.444 186.487 367.943 187.519C365.443 188.55 363.336 190.353 361.93 192.665C360.485 194.997 360.622 197.366 360.447 200.146C360.215 203.928 359.974 207.726 359.725 211.542Z" fill="url(#paint24_linear_12_581)"/>
<path d="M358.093 179.637C357.059 179.213 355.663 178.826 355.003 179.724C354.777 180.099 354.668 180.533 354.692 180.971C354.672 182.55 355.201 184.088 356.187 185.322C355.155 185.248 354.131 185.554 353.309 186.182C352.15 187.329 352.723 189.349 353.745 190.608C354.766 191.867 356.174 192.89 356.785 194.349C357.109 195.134 357.183 196.007 357.495 196.842C357.614 197.252 357.847 197.619 358.167 197.902C358.487 198.184 358.88 198.37 359.301 198.438C360.423 198.438 361.133 197.316 361.793 196.381C363.554 193.983 366.167 192.351 369.093 191.82C372.019 191.289 375.038 191.899 377.528 193.526C382.337 196.942 383.67 203.388 384.63 209.21C385.115 209.559 385.402 208.624 385.589 208.063C386.012 206.816 387.956 206.928 388.654 207.988C388.944 208.554 389.072 209.189 389.023 209.822C388.975 210.456 388.752 211.064 388.38 211.579C387.707 212.651 386.723 213.499 385.988 214.534C385.772 214.777 385.661 215.095 385.676 215.419C385.741 215.69 385.894 215.931 386.112 216.105C386.708 216.7 387.341 217.258 388.006 217.775C388.249 218.02 388.542 218.208 388.864 218.329C389.187 218.449 389.531 218.499 389.875 218.474C390.343 218.339 390.754 218.054 391.046 217.663C393.537 214.87 394.509 210.993 395.045 207.265C395.581 203.537 395.543 199.336 392.653 197.091C392.08 196.655 391.407 196.331 390.884 195.845C389.95 194.919 389.183 193.839 388.616 192.653C385.506 187.417 380.715 183.392 375.024 181.232C372.461 180.029 369.595 179.63 366.801 180.085C363.933 180.942 360.858 180.784 358.093 179.637V179.637Z" fill="#B7A451"/>
<path d="M343.155 270.975C342.719 271.524 342.32 272.359 342.806 272.858C342.976 272.978 343.168 273.064 343.371 273.109C343.575 273.154 343.785 273.157 343.99 273.12L358.865 272.235C359.108 272.237 359.348 272.195 359.575 272.11C360.323 271.773 360.373 270.763 360.323 269.94L360.061 266.1C359.974 264.716 360.261 264.293 358.915 264.106C356.892 264.016 354.869 264.299 352.947 264.941C349.144 265.904 345.726 268.01 343.155 270.975V270.975Z" fill="url(#paint25_linear_12_581)"/>
<path d="M426.391 277.982H303.362V314.488H426.391V277.982Z" fill="url(#paint26_linear_12_581)"/>
<path d="M267.743 221.965H236.31L241.643 193.513H263.184L267.743 221.965Z" fill="white"/>
<path d="M259.508 196.032H246.028V194.785C246.028 192.996 246.738 191.28 248.002 190.015C249.266 188.75 250.981 188.04 252.768 188.04C254.556 188.04 256.27 188.75 257.534 190.015C258.798 191.28 259.508 192.996 259.508 194.785V196.032ZM248.595 193.6H256.892C256.629 192.703 256.083 191.915 255.335 191.354C254.587 190.794 253.678 190.491 252.743 190.491C251.809 190.491 250.899 190.794 250.152 191.354C249.404 191.915 248.857 192.703 248.595 193.6Z" fill="white"/>
<path d="M335.58 288.38H311.996V314.014H335.58V288.38Z" fill="#DDD0F7"/>
<path d="M335.58 288.38H311.996V314.014H335.58V288.38Z" fill="url(#paint27_linear_12_581)"/>
<path d="M366.041 299.489H342.457V314.014H366.041V299.489Z" fill="url(#paint28_linear_12_581)"/>
<path d="M332.229 288.38H308.645V314.014H332.229V288.38Z" fill="#DDD0F7"/>
<path d="M361.27 300.948H342.943V314.301H361.27V300.948Z" fill="#DDD0F7"/>
<path d="M335.057 340.209H311.473V365.842H335.057V340.209Z" fill="#DDD0F7"/>
<path d="M360.747 352.776H342.42V366.129H360.747V352.776Z" fill="#DDD0F7"/>
<path d="M383.259 314.301C387.842 314.301 391.557 310.583 391.557 305.997C391.557 301.411 387.842 297.694 383.259 297.694C378.677 297.694 374.962 301.411 374.962 305.997C374.962 310.583 378.677 314.301 383.259 314.301Z" fill="url(#paint29_linear_12_581)"/>
<path d="M380.207 314.301C384.789 314.301 388.504 310.583 388.504 305.997C388.504 301.411 384.789 297.694 380.207 297.694C375.624 297.694 371.909 301.411 371.909 305.997C371.909 310.583 375.624 314.301 380.207 314.301Z" fill="#DDD0F7"/>
<path d="M375.697 366.353C380.279 366.353 383.994 362.636 383.994 358.05C383.994 353.464 380.279 349.746 375.697 349.746C371.114 349.746 367.399 353.464 367.399 358.05C367.399 362.636 371.114 366.353 375.697 366.353Z" fill="url(#paint30_linear_12_581)"/>
<path d="M372.632 366.353C377.215 366.353 380.929 362.636 380.929 358.05C380.929 353.464 377.215 349.746 372.632 349.746C368.049 349.746 364.335 353.464 364.335 358.05C364.335 362.636 368.049 366.353 372.632 366.353Z" fill="#DDD0F7"/>
<path d="M409.509 314.301C415.619 314.301 420.573 309.344 420.573 303.229C420.573 297.115 415.619 292.158 409.509 292.158C403.399 292.158 398.446 297.115 398.446 303.229C398.446 309.344 403.399 314.301 409.509 314.301Z" fill="url(#paint31_linear_12_581)"/>
<path d="M405.435 314.301C411.545 314.301 416.499 309.344 416.499 303.229C416.499 297.115 411.545 292.158 405.435 292.158C399.325 292.158 394.372 297.115 394.372 303.229C394.372 309.344 399.325 314.301 405.435 314.301Z" fill="#DDD0F7"/>
<path d="M399.032 365.967C405.142 365.967 410.095 361.01 410.095 354.896C410.095 348.781 405.142 343.824 399.032 343.824C392.922 343.824 387.968 348.781 387.968 354.896C387.968 361.01 392.922 365.967 399.032 365.967Z" fill="url(#paint32_linear_12_581)"/>
<path d="M394.958 365.967C401.068 365.967 406.021 361.01 406.021 354.896C406.021 348.781 401.068 343.824 394.958 343.824C388.848 343.824 383.895 348.781 383.895 354.896C383.895 361.01 388.848 365.967 394.958 365.967Z" fill="#DDD0F7"/>
<path d="M213.922 267.26C213.922 273.419 210.696 276.461 206.921 276.461C203.146 276.461 200.156 273.544 200.106 267.734C200.056 261.924 203.295 258.62 207.145 258.62C211.219 258.557 213.922 261.699 213.922 267.26ZM203.245 267.534C203.158 271.274 204.554 274.092 206.983 274.092C209.412 274.092 210.721 271.299 210.721 267.447C210.721 263.894 209.686 260.939 206.983 260.939C204.554 260.939 203.245 263.906 203.245 267.534ZM206.659 288.729L223.79 258.57H226.281L209.163 288.717L206.659 288.729ZM232.897 279.354C232.897 285.5 229.658 288.555 225.945 288.555C222.232 288.555 219.167 285.637 219.13 279.827C219.093 274.017 222.307 270.676 226.169 270.676C230.243 270.639 232.897 273.768 232.897 279.341V279.354ZM222.22 279.615C222.22 283.356 223.615 286.173 226.032 286.173C228.636 286.173 229.77 283.393 229.77 279.528C229.77 275.987 228.736 273.02 226.032 273.02C223.565 273.007 222.22 275.925 222.22 279.603V279.615Z" fill="white"/>
</g>
<defs>
<linearGradient id="paint0_linear_12_581" x1="315.048" y1="332.603" x2="305.429" y2="477.677" gradientUnits="userSpaceOnUse">
<stop offset="0.01"/>
<stop offset="0.13" stop-opacity="0.69"/>
<stop offset="1" stop-opacity="0"/>
</linearGradient>
<linearGradient id="paint1_linear_12_581" x1="312.345" y1="240.205" x2="594.133" y2="228.789" gradientUnits="userSpaceOnUse">
<stop offset="0.01"/>
<stop offset="0.13" stop-opacity="0.69"/>
<stop offset="1" stop-opacity="0"/>
</linearGradient>
<linearGradient id="paint2_linear_12_581" x1="366.477" y1="420.439" x2="358.854" y2="212.128" gradientUnits="userSpaceOnUse">
<stop offset="0.01"/>
<stop offset="0.13" stop-opacity="0.69"/>
<stop offset="1" stop-opacity="0"/>
</linearGradient>
<linearGradient id="paint3_linear_12_581" x1="359.476" y1="300.262" x2="377.205" y2="442.89" gradientUnits="userSpaceOnUse">
<stop offset="0.01"/>
<stop offset="0.13" stop-opacity="0.69"/>
<stop offset="1" stop-opacity="0"/>
</linearGradient>
<linearGradient id="paint4_linear_12_581" x1="315.273" y1="84.7196" x2="308.124" y2="175.92" gradientUnits="userSpaceOnUse">
<stop offset="0.01"/>
<stop offset="0.13" stop-opacity="0.69"/>
<stop offset="1" stop-opacity="0"/>
</linearGradient>
<linearGradient id="paint5_linear_12_581" x1="366.527" y1="83.984" x2="359.278" y2="176.319" gradientUnits="userSpaceOnUse">
<stop offset="0.01"/>
<stop offset="0.13" stop-opacity="0.69"/>
<stop offset="1" stop-opacity="0"/>
</linearGradient>
<linearGradient id="paint6_linear_12_581" x1="358.28" y1="79.4707" x2="351.043" y2="171.806" gradientUnits="userSpaceOnUse">
<stop offset="0.01"/>
<stop offset="0.13" stop-opacity="0.69"/>
<stop offset="1" stop-opacity="0"/>
</linearGradient>
<linearGradient id="paint7_linear_12_581" x1="404.825" y1="79.4707" x2="397.576" y2="171.806" gradientUnits="userSpaceOnUse">
<stop offset="0.01"/>
<stop offset="0.13" stop-opacity="0.69"/>
<stop offset="1" stop-opacity="0"/>
</linearGradient>
<linearGradient id="paint8_linear_12_581" x1="309.579" y1="101.601" x2="318.65" y2="184.984" gradientUnits="userSpaceOnUse">
<stop offset="0.02" stop-color="white" stop-opacity="0"/>
<stop offset="0.32" stop-color="white" stop-opacity="0.39"/>
<stop offset="0.68" stop-color="white" stop-opacity="0.68"/>
<stop offset="1" stop-color="white"/>
</linearGradient>
<linearGradient id="paint9_linear_12_581" x1="284.849" y1="104.294" x2="293.92" y2="187.677" gradientUnits="userSpaceOnUse">
<stop offset="0.01"/>
<stop offset="0.13" stop-opacity="0.69"/>
<stop offset="1" stop-opacity="0"/>
</linearGradient>
<linearGradient id="paint10_linear_12_581" x1="359.052" y1="96.352" x2="368.123" y2="179.747" gradientUnits="userSpaceOnUse">
<stop offset="0.02" stop-color="white" stop-opacity="0"/>
<stop offset="0.32" stop-color="white" stop-opacity="0.39"/>
<stop offset="0.68" stop-color="white" stop-opacity="0.68"/>
<stop offset="1" stop-color="white"/>
</linearGradient>
<linearGradient id="paint11_linear_12_581" x1="382.188" y1="97.0876" x2="391.109" y2="179.149" gradientUnits="userSpaceOnUse">
<stop offset="0.01"/>
<stop offset="0.13" stop-opacity="0.69"/>
<stop offset="1" stop-opacity="0"/>
</linearGradient>
<linearGradient id="paint12_linear_12_581" x1="260.106" y1="106.975" x2="269.177" y2="190.37" gradientUnits="userSpaceOnUse">
<stop offset="0.02" stop-color="white" stop-opacity="0"/>
<stop offset="0.32" stop-color="white" stop-opacity="0.39"/>
<stop offset="0.68" stop-color="white" stop-opacity="0.68"/>
<stop offset="1" stop-color="white"/>
</linearGradient>
<linearGradient id="paint13_linear_12_581" x1="334.322" y1="98.9079" x2="343.393" y2="182.291" gradientUnits="userSpaceOnUse">
<stop offset="0.01"/>
<stop offset="0.13" stop-opacity="0.69"/>
<stop offset="1" stop-opacity="0"/>
</linearGradient>
<linearGradient id="paint14_linear_12_581" x1="235.376" y1="109.668" x2="244.447" y2="193.063" gradientUnits="userSpaceOnUse">
<stop offset="0.01"/>
<stop offset="0.13" stop-opacity="0.69"/>
<stop offset="1" stop-opacity="0"/>
</linearGradient>
<linearGradient id="paint15_linear_12_581" x1="250.663" y1="116.064" x2="310.04" y2="116.064" gradientUnits="userSpaceOnUse">
<stop offset="0.02" stop-color="white" stop-opacity="0"/>
<stop offset="0.32" stop-color="white" stop-opacity="0.39"/>
<stop offset="0.68" stop-color="white" stop-opacity="0.68"/>
<stop offset="1" stop-color="white"/>
</linearGradient>
<linearGradient id="paint16_linear_12_581" x1="300.846" y1="115.951" x2="358.678" y2="115.951" gradientUnits="userSpaceOnUse">
<stop offset="0.02" stop-color="white" stop-opacity="0"/>
<stop offset="0.32" stop-color="white" stop-opacity="0.39"/>
<stop offset="0.68" stop-color="white" stop-opacity="0.68"/>
<stop offset="1" stop-color="white"/>
</linearGradient>
<linearGradient id="paint17_linear_12_581" x1="351.029" y1="115.951" x2="408.861" y2="115.951" gradientUnits="userSpaceOnUse">
<stop offset="0.02" stop-color="white" stop-opacity="0"/>
<stop offset="0.32" stop-color="white" stop-opacity="0.39"/>
<stop offset="0.68" stop-color="white" stop-opacity="0.68"/>
<stop offset="1" stop-color="white"/>
</linearGradient>
<linearGradient id="paint18_linear_12_581" x1="451.819" y1="133.568" x2="386.081" y2="101.427" gradientUnits="userSpaceOnUse">
<stop offset="0.01"/>
<stop offset="0.13" stop-opacity="0.69"/>
<stop offset="1" stop-opacity="0"/>
</linearGradient>
<linearGradient id="paint19_linear_12_581" x1="336.564" y1="357.452" x2="340.52" y2="423.505" gradientUnits="userSpaceOnUse">
<stop offset="0.01"/>
<stop offset="0.13" stop-opacity="0.69"/>
<stop offset="1" stop-opacity="0"/>
</linearGradient>
<linearGradient id="paint20_linear_12_581" x1="216.514" y1="203.076" x2="282.008" y2="203.076" gradientUnits="userSpaceOnUse">
<stop offset="0.02" stop-color="white" stop-opacity="0"/>
<stop offset="0.32" stop-color="white" stop-opacity="0.39"/>
<stop offset="0.68" stop-color="white" stop-opacity="0.68"/>
<stop offset="1" stop-color="white"/>
</linearGradient>
<linearGradient id="paint21_linear_12_581" x1="183.337" y1="272.658" x2="241.344" y2="272.658" gradientUnits="userSpaceOnUse">
<stop offset="0.02" stop-color="white" stop-opacity="0"/>
<stop offset="0.32" stop-color="white" stop-opacity="0.39"/>
<stop offset="0.68" stop-color="white" stop-opacity="0.68"/>
<stop offset="1" stop-color="white"/>
</linearGradient>
<linearGradient id="paint22_linear_12_581" x1="325.053" y1="225.58" x2="345.908" y2="225.58" gradientUnits="userSpaceOnUse">
<stop stop-color="#E5C5D5"/>
<stop offset="0.42" stop-color="#EAD4D1"/>
<stop offset="1" stop-color="#F0E9CB"/>
</linearGradient>
<linearGradient id="paint23_linear_12_581" x1="367.399" y1="242.337" x2="386.013" y2="313.11" gradientUnits="userSpaceOnUse">
<stop stop-opacity="0"/>
<stop offset="0.99"/>
</linearGradient>
<linearGradient id="paint24_linear_12_581" x1="359.992" y1="218.045" x2="390.772" y2="205.687" gradientUnits="userSpaceOnUse">
<stop stop-color="#E5C5D5"/>
<stop offset="0.42" stop-color="#EAD4D1"/>
<stop offset="1" stop-color="#F0E9CB"/>
</linearGradient>
<linearGradient id="paint25_linear_12_581" x1="342.582" y1="268.594" x2="360.335" y2="268.594" gradientUnits="userSpaceOnUse">
<stop stop-color="#E5C5D5"/>
<stop offset="0.42" stop-color="#EAD4D1"/>
<stop offset="1" stop-color="#F0E9CB"/>
</linearGradient>
<linearGradient id="paint26_linear_12_581" x1="360.373" y1="259.916" x2="375.257" y2="379.766" gradientUnits="userSpaceOnUse">
<stop offset="0.01"/>
<stop offset="0.13" stop-opacity="0.69"/>
<stop offset="1" stop-opacity="0"/>
</linearGradient>
<linearGradient id="paint27_linear_12_581" x1="336.702" y1="297.781" x2="295.36" y2="308.688" gradientUnits="userSpaceOnUse">
<stop offset="0.01"/>
<stop offset="0.13" stop-opacity="0.69"/>
<stop offset="1" stop-opacity="0"/>
</linearGradient>
<linearGradient id="paint28_linear_12_581" x1="365.917" y1="303.666" x2="328.575" y2="313.514" gradientUnits="userSpaceOnUse">
<stop offset="0.01"/>
<stop offset="0.13" stop-opacity="0.69"/>
<stop offset="1" stop-opacity="0"/>
</linearGradient>
<linearGradient id="paint29_linear_12_581" x1="387.308" y1="295.624" x2="374.422" y2="328.607" gradientUnits="userSpaceOnUse">
<stop offset="0.01"/>
<stop offset="0.13" stop-opacity="0.69"/>
<stop offset="1" stop-opacity="0"/>
</linearGradient>
<linearGradient id="paint30_linear_12_581" x1="379.746" y1="347.677" x2="366.847" y2="380.66" gradientUnits="userSpaceOnUse">
<stop offset="0.01"/>
<stop offset="0.13" stop-opacity="0.69"/>
<stop offset="1" stop-opacity="0"/>
</linearGradient>
<linearGradient id="paint31_linear_12_581" x1="414.904" y1="289.403" x2="397.714" y2="333.38" gradientUnits="userSpaceOnUse">
<stop offset="0.01"/>
<stop offset="0.13" stop-opacity="0.69"/>
<stop offset="1" stop-opacity="0"/>
</linearGradient>
<linearGradient id="paint32_linear_12_581" x1="404.426" y1="341.056" x2="387.236" y2="385.034" gradientUnits="userSpaceOnUse">
<stop offset="0.01"/>
<stop offset="0.13" stop-opacity="0.69"/>
<stop offset="1" stop-opacity="0"/>
</linearGradient>
<clipPath id="clip0_12_581">
<rect width="647" height="488" fill="white" transform="translate(0.5 0.5)"/>
</clipPath>
</defs>
</svg>
