<svg width="714" height="1024" viewBox="0 0 714 1024" fill="none" xmlns="http://www.w3.org/2000/svg">
<g filter="url(#filter0_d_11_361)">
<path d="M4 7.99999C4 3.58171 7.58172 0 12 0H714V1019H12C7.58172 1019 4 1015.42 4 1011V7.99999Z" fill="url(#paint0_linear_11_361)" shape-rendering="crispEdges"/>
<g clip-path="url(#clip0_11_361)">
<path opacity="0.41" d="M570.266 638.934C568.684 647.138 566.653 655.404 562.517 662.623C562.131 663.296 561.744 663.957 561.271 664.593V664.306L152.07 663.184V664.954C150.824 632.064 143.349 599.536 143.261 566.609C143.234 547.587 145.705 528.644 150.612 510.267C155.234 492.962 162.099 476.055 172.726 461.643C201.729 422.282 252.722 407.62 294.022 381.487C337.964 353.697 353.25 291.308 401.54 272.07C426.993 261.897 456.769 263.792 481.312 275.985C505.855 288.179 525.129 310.272 535.071 335.831C547.803 368.608 545.523 404.964 549.597 439.886C554.73 484.022 570.141 526.413 573.879 570.598C575.814 593.435 574.598 616.429 570.266 638.934Z" fill="#DDD0F7"/>
<path opacity="0.66" d="M561.321 664.356V664.879C534.36 719.513 471.096 750.982 441.606 751.755L235.529 753.5C188.573 753.5 151.97 714.252 151.97 667.261V664.954V663.184L561.321 664.356Z" fill="#DDD0F7"/>
<path d="M205.866 684.217C203.449 685.139 200.508 687.321 201.68 689.628C202.2 690.438 202.963 691.062 203.86 691.411C228.478 704.402 257.307 706.023 285.102 707.394L393.492 712.693C410.722 713.528 428.737 714.227 444.385 706.983C450.341 704.01 455.995 700.465 461.266 696.398C468.741 691.012 476.133 685.555 483.442 680.028C485.274 678.656 487.18 677.06 487.591 674.804C488.002 672.21 485.996 669.717 483.579 668.682C481.082 667.829 478.429 667.531 475.805 667.809C451.86 668.64 427.906 668.977 403.944 668.819C388.745 668.732 373.496 668.47 358.408 666.55C333.84 663.421 310.418 660.067 285.625 663.184C258.441 666.587 231.331 674.43 205.866 684.217Z" fill="url(#paint1_linear_11_361)"/>
<path d="M464.518 337.389H320.322C307.566 337.389 297.224 347.738 297.224 360.504V646.227C297.224 658.994 307.566 669.343 320.322 669.343H464.518C477.275 669.343 487.616 658.994 487.616 646.227V360.504C487.616 347.738 477.275 337.389 464.518 337.389Z" fill="#DDD0F7"/>
<path d="M464.518 337.389H320.322C307.566 337.389 297.224 347.738 297.224 360.504V646.227C297.224 658.994 307.566 669.343 320.322 669.343H464.518C477.275 669.343 487.616 658.994 487.616 646.227V360.504C487.616 347.738 477.275 337.389 464.518 337.389Z" fill="url(#paint2_linear_11_361)"/>
<path d="M452.67 337.389H308.474C295.718 337.389 285.376 347.738 285.376 360.504V646.227C285.376 658.994 295.718 669.343 308.474 669.343H452.67C465.426 669.343 475.768 658.994 475.768 646.227V360.504C475.768 347.738 465.426 337.389 452.67 337.389Z" fill="#DDD0F7"/>
<path d="M461.403 375.391V619.646C461.403 624.515 459.471 629.184 456.032 632.628C452.594 636.072 447.929 638.008 443.064 638.011H318.977C316.568 638.011 314.182 637.536 311.956 636.613C309.73 635.69 307.708 634.337 306.005 632.631C304.302 630.926 302.951 628.901 302.03 626.673C301.109 624.445 300.636 622.057 300.638 619.646V375.391C300.636 373.405 301.026 371.438 301.783 369.602C302.541 367.767 303.653 366.099 305.055 364.693C306.457 363.288 308.123 362.172 309.955 361.411C311.788 360.649 313.753 360.256 315.738 360.255H446.278C450.289 360.258 454.134 361.854 456.97 364.692C459.805 367.529 461.4 371.377 461.403 375.391Z" fill="white"/>
<path d="M461.403 538.519V619.646C461.403 624.515 459.471 629.184 456.032 632.628C452.594 636.072 447.929 638.008 443.064 638.011H334.463V538.519H461.403Z" fill="#DDD0F7"/>
<path d="M461.391 538.519V619.646C461.387 624.512 459.456 629.177 456.021 632.62C452.585 636.063 447.926 638.001 443.064 638.011H334.463V538.519H461.391Z" fill="url(#paint3_linear_11_361)"/>
<path d="M461.391 585.31V619.646C461.398 624.359 459.586 628.893 456.332 632.301H338.412V585.31H461.391Z" fill="url(#paint4_linear_11_361)"/>
<path d="M298.757 360.417L259.998 401.897H432.088L466.623 359.831L298.757 360.417Z" fill="#DDD0F7"/>
<path d="M320.011 360.255L285.289 401.648L432.4 401.797H259.998L261.045 400.812L274.911 387.809L300.526 360.242L320.011 360.255Z" fill="url(#paint5_linear_11_361)"/>
<path d="M370.966 359.656L336.481 401.648L483.592 401.797H311.19L312.237 400.812L345.04 360.242L370.966 359.656Z" fill="url(#paint6_linear_11_361)"/>
<path d="M420.327 359.656L385.842 401.648L360.551 401.797L361.598 400.812L394.401 360.242L420.327 359.656Z" fill="url(#paint7_linear_11_361)"/>
<path d="M466.872 359.656L432.387 401.648L407.096 401.797L408.143 400.812L440.946 360.242L466.872 359.656Z" fill="url(#paint8_linear_11_361)"/>
<path d="M336.07 401.885H360.75C360.337 404.866 358.86 407.596 356.592 409.573C354.324 411.549 351.418 412.638 348.41 412.638C345.403 412.638 342.497 411.549 340.229 409.573C337.961 407.596 336.484 404.866 336.07 401.885Z" fill="#DDD0F7"/>
<path d="M311.003 401.885H335.684C335.27 404.866 333.793 407.596 331.525 409.573C329.257 411.549 326.351 412.638 323.344 412.638C320.336 412.638 317.43 411.549 315.162 409.573C312.894 407.596 311.417 404.866 311.003 401.885Z" fill="#DDD0F7"/>
<path d="M410.821 401.735C410.435 404.728 408.976 407.479 406.717 409.478C404.457 411.476 401.55 412.587 398.535 412.604C395.519 412.62 392.6 411.542 390.319 409.569C388.037 407.595 386.548 404.861 386.129 401.872H410.672L410.821 401.735Z" fill="#DDD0F7"/>
<path d="M432.275 401.735C431.677 407.969 427.092 412.794 421.536 412.794C415.979 412.794 411.457 408.019 410.809 401.872H432.188L432.275 401.735Z" fill="#DDD0F7"/>
<path d="M286.086 401.885H310.767C310.353 404.866 308.876 407.596 306.608 409.573C304.34 411.549 301.434 412.638 298.427 412.638C295.419 412.638 292.513 411.549 290.245 409.573C287.977 407.596 286.5 404.866 286.086 401.885Z" fill="#DDD0F7"/>
<path d="M361.099 401.885H385.755C385.341 404.866 383.864 407.596 381.596 409.573C379.328 411.549 376.422 412.638 373.415 412.638C370.407 412.638 367.501 411.549 365.233 409.573C362.965 407.596 361.488 404.866 361.074 401.885H361.099Z" fill="#DDD0F7"/>
<path d="M260.995 401.885H285.675C285.262 404.866 283.784 407.596 281.516 409.573C279.248 411.549 276.342 412.638 273.335 412.638C270.328 412.638 267.422 411.549 265.154 409.573C262.885 407.596 261.408 404.866 260.995 401.885Z" fill="#DDD0F7"/>
<path d="M336.07 401.885H360.75C360.337 404.866 358.86 407.596 356.592 409.573C354.324 411.549 351.418 412.638 348.41 412.638C345.403 412.638 342.497 411.549 340.229 409.573C337.961 407.596 336.484 404.866 336.07 401.885Z" fill="url(#paint9_linear_11_361)"/>
<path d="M311.003 401.885H335.684C335.27 404.866 333.793 407.596 331.525 409.573C329.257 411.549 326.351 412.638 323.344 412.638C320.336 412.638 317.43 411.549 315.162 409.573C312.894 407.596 311.417 404.866 311.003 401.885Z" fill="url(#paint10_linear_11_361)"/>
<path d="M410.809 401.885C410.422 404.878 408.964 407.628 406.704 409.627C404.445 411.626 401.538 412.737 398.522 412.753C395.507 412.77 392.588 411.692 390.306 409.718C388.025 407.745 386.536 405.01 386.116 402.022H410.672L410.809 401.885Z" fill="url(#paint11_linear_11_361)"/>
<path d="M432.2 401.81C431.615 408.044 427.042 412.881 421.498 412.881C415.954 412.881 411.457 408.094 410.809 401.959H432.113L432.2 401.81Z" fill="url(#paint12_linear_11_361)"/>
<path d="M286.086 401.885H310.767C310.353 404.866 308.876 407.596 306.608 409.573C304.34 411.549 301.434 412.638 298.427 412.638C295.419 412.638 292.513 411.549 290.245 409.573C287.977 407.596 286.5 404.866 286.086 401.885Z" fill="url(#paint13_linear_11_361)"/>
<path d="M361.099 401.885H385.755C385.341 404.866 383.864 407.596 381.596 409.573C379.328 411.549 376.422 412.638 373.415 412.638C370.407 412.638 367.501 411.549 365.233 409.573C362.965 407.596 361.488 404.866 361.074 401.885H361.099Z" fill="url(#paint14_linear_11_361)"/>
<path d="M260.995 401.885H285.675C285.262 404.866 283.784 407.596 281.516 409.573C279.248 411.549 276.342 412.638 273.335 412.638C270.328 412.638 267.422 411.549 265.154 409.573C262.885 407.596 261.408 404.866 260.995 401.885Z" fill="url(#paint15_linear_11_361)"/>
<path d="M285.663 401.885L319.774 360.554L345.04 360.242L310.692 401.885H285.663Z" fill="url(#paint16_linear_11_361)"/>
<path d="M335.846 401.885L369.957 360.554L393.678 360.018L360.875 401.885H335.846Z" fill="url(#paint17_linear_11_361)"/>
<path d="M386.029 401.885L420.128 360.554L443.861 360.018L411.046 401.885H386.029Z" fill="url(#paint18_linear_11_361)"/>
<path d="M432.113 401.959L465.203 395.401L466.997 359.656L432.113 401.959Z" fill="#DDD0F7"/>
<path d="M432.387 401.61L465.477 395.052L467.284 359.307L432.387 401.61Z" fill="url(#paint19_linear_11_361)"/>
<path d="M386.639 645.779H360.128C356.233 645.779 353.076 648.938 353.076 652.835C353.076 656.733 356.233 659.892 360.128 659.892H386.639C390.534 659.892 393.691 656.733 393.691 652.835C393.691 648.938 390.534 645.779 386.639 645.779Z" fill="url(#paint20_linear_11_361)"/>
<path d="M290.085 500.854C308.175 500.854 322.839 486.179 322.839 468.076C322.839 449.973 308.175 435.298 290.085 435.298C271.996 435.298 257.332 449.973 257.332 468.076C257.332 486.179 271.996 500.854 290.085 500.854Z" fill="#DDD0F7"/>
<path d="M284.267 500.854C302.357 500.854 317.021 486.179 317.021 468.076C317.021 449.973 302.357 435.298 284.267 435.298C266.178 435.298 251.514 449.973 251.514 468.076C251.514 486.179 266.178 500.854 284.267 500.854Z" fill="url(#paint21_linear_11_361)"/>
<path d="M252.498 566.683C268.516 566.683 281.502 553.688 281.502 537.658C281.502 521.628 268.516 508.633 252.498 508.633C236.48 508.633 223.495 521.628 223.495 537.658C223.495 553.688 236.48 566.683 252.498 566.683Z" fill="#DDD0F7"/>
<path d="M247.34 566.683C263.358 566.683 276.344 553.688 276.344 537.658C276.344 521.628 263.358 508.633 247.34 508.633C231.322 508.633 218.337 521.628 218.337 537.658C218.337 553.688 231.322 566.683 247.34 566.683Z" fill="url(#paint22_linear_11_361)"/>
<path d="M390.85 502.462C386.789 506.826 384.434 512.436 382.129 517.972L375.638 533.706C375.429 534.065 375.301 534.465 375.265 534.879C375.228 535.293 375.283 535.71 375.427 536.1C375.673 536.413 375.984 536.667 376.339 536.846C376.695 537.025 377.085 537.123 377.482 537.135C380.786 537.635 384.112 537.968 387.449 538.132C404.301 539.179 421.183 539.566 438.093 539.292C440.12 539.399 442.146 539.054 444.023 538.282C448.683 535.925 449.007 529.442 448.222 524.293C447.281 518.293 445.607 512.43 443.239 506.838C442.407 504.622 441.183 502.573 439.626 500.791C435.763 496.739 429.659 496.091 424.04 495.929C413.375 495.667 398.849 493.847 390.85 502.462Z" fill="#DDD0F7"/>
<path d="M378.454 498.859C378.348 498.288 378.035 497.776 377.575 497.421C377.116 497.067 376.541 496.895 375.962 496.939C374.494 496.874 373.024 496.928 371.564 497.101C370.626 497.127 369.723 497.464 368.998 498.061C368.473 498.696 368.148 499.473 368.064 500.293C366.88 506.713 368.25 513.296 368.774 519.805C369.135 524.243 369.172 528.956 371.564 532.696C372.646 534.351 374.125 535.708 375.867 536.642C377.608 537.576 379.556 538.059 381.531 538.045C383.201 538.045 385.094 537.434 385.73 535.9C385.988 535.126 386.06 534.302 385.942 533.494C385.082 521.812 383.4 509.606 378.454 498.859Z" fill="#DDD0F7"/>
<path d="M377.607 493.136C378.392 491.44 379.463 489.894 380.398 488.274C380.663 487.867 380.838 487.408 380.908 486.927C380.938 486.678 380.892 486.426 380.777 486.204C380.661 485.981 380.481 485.799 380.261 485.68C379.326 485.319 378.579 486.615 377.607 486.815C376.635 487.014 375.937 486.241 375.302 485.568C372.531 482.807 369.258 480.603 365.659 479.072C365.474 478.961 365.268 478.888 365.054 478.858C364.84 478.828 364.622 478.842 364.413 478.898C364.027 479.072 363.915 479.758 364.314 479.883C363.928 479.913 363.543 479.817 363.217 479.609C362.868 479.459 362.358 479.447 362.196 479.796C362.034 480.145 362.507 480.656 362.382 481.042C361.959 481.052 361.536 480.985 361.137 480.843C360.713 480.768 360.152 480.843 360.078 481.329C360.046 481.49 360.046 481.655 360.078 481.815C360.134 482.467 360.134 483.122 360.078 483.773C360.273 485.512 361 487.149 362.158 488.461C364.468 491.336 366.551 494.388 368.388 497.587C368.828 498.632 369.42 499.607 370.144 500.48C371.166 501.577 374.953 503.135 375.95 501.228C376.423 500.33 376.037 498.36 376.211 497.313C376.491 495.865 376.961 494.461 377.607 493.136Z" fill="url(#paint23_linear_11_361)"/>
<path d="M429.011 519.468C429.255 520.258 429.322 521.092 429.208 521.91C429.094 522.729 428.801 523.513 428.351 524.206C427.267 525.527 425.373 525.789 423.666 525.876C415.356 526.313 406.872 524.879 398.749 526.774C397.582 526.922 396.505 527.479 395.709 528.345C395.015 529.575 394.814 531.024 395.149 532.397L395.846 538.344L387.748 536.873C387.444 536.832 387.152 536.73 386.888 536.574C386.505 536.202 386.278 535.698 386.253 535.165C385.59 532.065 385.301 528.896 385.393 525.727C385.502 522.531 386.758 519.481 388.932 517.137C390.991 515.306 393.475 514.021 396.158 513.396C402.387 511.601 408.94 511.077 415.431 510.554C418.234 510.329 422.906 509.706 425.311 511.613C427.317 513.234 428.513 517.087 429.011 519.468Z" fill="url(#paint24_linear_11_361)"/>
<path d="M394.725 476.542C394.502 478.578 394.573 480.635 394.937 482.651C395.376 484.419 396.23 486.058 397.428 487.43C398.626 488.803 400.134 489.87 401.826 490.543C404.318 491.528 407.271 491.79 408.977 493.822C410.684 495.854 410.597 498.56 412.354 500.255C413.266 501.018 414.404 501.458 415.592 501.505C416.78 501.553 417.95 501.205 418.919 500.517C420.833 499.071 422.115 496.94 422.495 494.57C422.851 492.223 422.988 489.848 422.906 487.476C422.943 484.311 423.206 481.153 423.691 478.025C424.114 475.849 424.377 473.645 424.476 471.43C424.455 468.868 423.961 466.331 423.018 463.949C420.913 458.401 416.577 453.401 410.834 451.93C408.208 451.281 405.444 451.487 402.943 452.519C400.443 453.55 398.336 455.353 396.93 457.665C395.485 459.997 395.622 462.366 395.447 465.146C395.215 468.928 394.974 472.726 394.725 476.542Z" fill="url(#paint25_linear_11_361)"/>
<path d="M393.093 444.637C392.059 444.213 390.663 443.826 390.003 444.724C389.777 445.099 389.668 445.533 389.692 445.971C389.672 447.55 390.201 449.088 391.187 450.322C390.155 450.248 389.131 450.554 388.309 451.182C387.15 452.329 387.723 454.349 388.745 455.608C389.766 456.867 391.174 457.89 391.785 459.349C392.109 460.134 392.183 461.007 392.495 461.842C392.614 462.252 392.847 462.619 393.167 462.902C393.487 463.184 393.88 463.37 394.301 463.438C395.423 463.438 396.133 462.316 396.793 461.381C398.554 458.983 401.167 457.351 404.093 456.82C407.019 456.289 410.038 456.899 412.528 458.526C417.337 461.942 418.67 468.388 419.63 474.21C420.115 474.559 420.402 473.624 420.589 473.063C421.012 471.816 422.956 471.928 423.654 472.988C423.944 473.554 424.072 474.189 424.023 474.822C423.975 475.456 423.752 476.064 423.38 476.579C422.707 477.651 421.723 478.499 420.988 479.534C420.772 479.777 420.661 480.095 420.676 480.419C420.741 480.69 420.894 480.931 421.112 481.105C421.708 481.7 422.341 482.258 423.006 482.775C423.249 483.02 423.542 483.208 423.864 483.329C424.187 483.449 424.531 483.499 424.875 483.474C425.343 483.339 425.754 483.054 426.046 482.663C428.537 479.87 429.509 475.993 430.045 472.265C430.581 468.537 430.543 464.336 427.653 462.091C427.08 461.655 426.407 461.331 425.884 460.845C424.95 459.919 424.183 458.839 423.616 457.653C420.506 452.417 415.715 448.392 410.024 446.232C407.461 445.029 404.595 444.63 401.801 445.085C398.933 445.942 395.858 445.784 393.093 444.637Z" fill="#B7A451"/>
<path d="M378.155 535.975C377.719 536.524 377.32 537.359 377.806 537.858C377.976 537.978 378.168 538.064 378.371 538.109C378.575 538.154 378.785 538.157 378.99 538.12L393.865 537.235C394.108 537.237 394.348 537.195 394.575 537.11C395.323 536.773 395.373 535.763 395.323 534.94L395.061 531.1C394.974 529.716 395.261 529.293 393.915 529.106C391.892 529.016 389.869 529.299 387.947 529.941C384.144 530.904 380.726 533.01 378.155 535.975Z" fill="url(#paint26_linear_11_361)"/>
<path d="M461.391 542.982H338.362V579.488H461.391V542.982Z" fill="url(#paint27_linear_11_361)"/>
<path d="M302.743 486.965H271.31L276.643 458.513H298.184L302.743 486.965Z" fill="white"/>
<path d="M294.508 461.032H281.028V459.785C281.028 457.996 281.738 456.28 283.002 455.015C284.266 453.75 285.981 453.04 287.768 453.04C289.556 453.04 291.27 453.75 292.534 455.015C293.798 456.28 294.508 457.996 294.508 459.785V461.032ZM283.595 458.6H291.892C291.629 457.703 291.083 456.915 290.335 456.354C289.587 455.794 288.678 455.491 287.743 455.491C286.809 455.491 285.899 455.794 285.152 456.354C284.404 456.915 283.857 457.703 283.595 458.6Z" fill="white"/>
<path d="M370.58 553.38H346.996V579.014H370.58V553.38Z" fill="#DDD0F7"/>
<path d="M370.58 553.38H346.996V579.014H370.58V553.38Z" fill="url(#paint28_linear_11_361)"/>
<path d="M401.041 564.489H377.457V579.014H401.041V564.489Z" fill="url(#paint29_linear_11_361)"/>
<path d="M367.229 553.38H343.645V579.014H367.229V553.38Z" fill="#DDD0F7"/>
<path d="M396.27 565.948H377.943V579.301H396.27V565.948Z" fill="#DDD0F7"/>
<path d="M370.057 605.209H346.473V630.842H370.057V605.209Z" fill="#DDD0F7"/>
<path d="M395.747 617.776H377.42V631.129H395.747V617.776Z" fill="#DDD0F7"/>
<path d="M418.259 579.301C422.842 579.301 426.557 575.583 426.557 570.997C426.557 566.411 422.842 562.694 418.259 562.694C413.677 562.694 409.962 566.411 409.962 570.997C409.962 575.583 413.677 579.301 418.259 579.301Z" fill="url(#paint30_linear_11_361)"/>
<path d="M415.207 579.301C419.789 579.301 423.504 575.583 423.504 570.997C423.504 566.411 419.789 562.694 415.207 562.694C410.624 562.694 406.909 566.411 406.909 570.997C406.909 575.583 410.624 579.301 415.207 579.301Z" fill="#DDD0F7"/>
<path d="M410.697 631.353C415.279 631.353 418.994 627.636 418.994 623.05C418.994 618.464 415.279 614.746 410.697 614.746C406.114 614.746 402.399 618.464 402.399 623.05C402.399 627.636 406.114 631.353 410.697 631.353Z" fill="url(#paint31_linear_11_361)"/>
<path d="M407.632 631.353C412.215 631.353 415.929 627.636 415.929 623.05C415.929 618.464 412.215 614.746 407.632 614.746C403.049 614.746 399.335 618.464 399.335 623.05C399.335 627.636 403.049 631.353 407.632 631.353Z" fill="#DDD0F7"/>
<path d="M444.509 579.301C450.619 579.301 455.573 574.344 455.573 568.229C455.573 562.115 450.619 557.158 444.509 557.158C438.399 557.158 433.446 562.115 433.446 568.229C433.446 574.344 438.399 579.301 444.509 579.301Z" fill="url(#paint32_linear_11_361)"/>
<path d="M440.435 579.301C446.545 579.301 451.499 574.344 451.499 568.229C451.499 562.115 446.545 557.158 440.435 557.158C434.325 557.158 429.372 562.115 429.372 568.229C429.372 574.344 434.325 579.301 440.435 579.301Z" fill="#DDD0F7"/>
<path d="M434.032 630.967C440.142 630.967 445.095 626.01 445.095 619.896C445.095 613.781 440.142 608.824 434.032 608.824C427.922 608.824 422.968 613.781 422.968 619.896C422.968 626.01 427.922 630.967 434.032 630.967Z" fill="url(#paint33_linear_11_361)"/>
<path d="M429.958 630.967C436.068 630.967 441.021 626.01 441.021 619.896C441.021 613.781 436.068 608.824 429.958 608.824C423.848 608.824 418.895 613.781 418.895 619.896C418.895 626.01 423.848 630.967 429.958 630.967Z" fill="#DDD0F7"/>
<path d="M248.922 532.26C248.922 538.419 245.696 541.461 241.921 541.461C238.146 541.461 235.156 538.544 235.106 532.734C235.056 526.924 238.295 523.62 242.145 523.62C246.219 523.557 248.922 526.699 248.922 532.26ZM238.245 532.534C238.158 536.274 239.554 539.092 241.983 539.092C244.412 539.092 245.721 536.299 245.721 532.447C245.721 528.894 244.686 525.939 241.983 525.939C239.554 525.939 238.245 528.906 238.245 532.534ZM241.659 553.729L258.79 523.57H261.281L244.163 553.717L241.659 553.729ZM267.897 544.354C267.897 550.5 264.658 553.555 260.945 553.555C257.232 553.555 254.167 550.637 254.13 544.827C254.093 539.017 257.307 535.676 261.169 535.676C265.243 535.639 267.897 538.768 267.897 544.341V544.354ZM257.22 544.615C257.22 548.356 258.615 551.173 261.032 551.173C263.636 551.173 264.77 548.393 264.77 544.528C264.77 540.987 263.736 538.02 261.032 538.02C258.565 538.007 257.22 540.925 257.22 544.603V544.615Z" fill="white"/>
</g>
</g>
<defs>
<filter id="filter0_d_11_361" x="0" y="0" width="718" height="1027" filterUnits="userSpaceOnUse" color-interpolation-filters="sRGB">
<feFlood flood-opacity="0" result="BackgroundImageFix"/>
<feColorMatrix in="SourceAlpha" type="matrix" values="0 0 0 0 0 0 0 0 0 0 0 0 0 0 0 0 0 0 127 0" result="hardAlpha"/>
<feOffset dy="4"/>
<feGaussianBlur stdDeviation="2"/>
<feComposite in2="hardAlpha" operator="out"/>
<feColorMatrix type="matrix" values="0 0 0 0 0 0 0 0 0 0 0 0 0 0 0 0 0 0 0.25 0"/>
<feBlend mode="normal" in2="BackgroundImageFix" result="effect1_dropShadow_11_361"/>
<feBlend mode="normal" in="SourceGraphic" in2="effect1_dropShadow_11_361" result="shape"/>
</filter>
<linearGradient id="paint0_linear_11_361" x1="714" y1="0" x2="231.719" y2="899.763" gradientUnits="userSpaceOnUse">
<stop stop-color="#A887EB"/>
<stop offset="1" stop-color="#8C60E4" stop-opacity="0.9"/>
</linearGradient>
<linearGradient id="paint1_linear_11_361" x1="350.048" y1="597.603" x2="340.429" y2="742.677" gradientUnits="userSpaceOnUse">
<stop offset="0.01"/>
<stop offset="0.13" stop-opacity="0.69"/>
<stop offset="1" stop-opacity="0"/>
</linearGradient>
<linearGradient id="paint2_linear_11_361" x1="347.345" y1="505.205" x2="629.133" y2="493.789" gradientUnits="userSpaceOnUse">
<stop offset="0.01"/>
<stop offset="0.13" stop-opacity="0.69"/>
<stop offset="1" stop-opacity="0"/>
</linearGradient>
<linearGradient id="paint3_linear_11_361" x1="401.477" y1="685.439" x2="393.854" y2="477.128" gradientUnits="userSpaceOnUse">
<stop offset="0.01"/>
<stop offset="0.13" stop-opacity="0.69"/>
<stop offset="1" stop-opacity="0"/>
</linearGradient>
<linearGradient id="paint4_linear_11_361" x1="394.476" y1="565.262" x2="412.205" y2="707.89" gradientUnits="userSpaceOnUse">
<stop offset="0.01"/>
<stop offset="0.13" stop-opacity="0.69"/>
<stop offset="1" stop-opacity="0"/>
</linearGradient>
<linearGradient id="paint5_linear_11_361" x1="350.273" y1="349.72" x2="343.124" y2="440.92" gradientUnits="userSpaceOnUse">
<stop offset="0.01"/>
<stop offset="0.13" stop-opacity="0.69"/>
<stop offset="1" stop-opacity="0"/>
</linearGradient>
<linearGradient id="paint6_linear_11_361" x1="401.527" y1="348.984" x2="394.278" y2="441.319" gradientUnits="userSpaceOnUse">
<stop offset="0.01"/>
<stop offset="0.13" stop-opacity="0.69"/>
<stop offset="1" stop-opacity="0"/>
</linearGradient>
<linearGradient id="paint7_linear_11_361" x1="393.28" y1="344.471" x2="386.043" y2="436.806" gradientUnits="userSpaceOnUse">
<stop offset="0.01"/>
<stop offset="0.13" stop-opacity="0.69"/>
<stop offset="1" stop-opacity="0"/>
</linearGradient>
<linearGradient id="paint8_linear_11_361" x1="439.825" y1="344.471" x2="432.576" y2="436.806" gradientUnits="userSpaceOnUse">
<stop offset="0.01"/>
<stop offset="0.13" stop-opacity="0.69"/>
<stop offset="1" stop-opacity="0"/>
</linearGradient>
<linearGradient id="paint9_linear_11_361" x1="344.579" y1="366.601" x2="353.65" y2="449.984" gradientUnits="userSpaceOnUse">
<stop offset="0.02" stop-color="white" stop-opacity="0"/>
<stop offset="0.32" stop-color="white" stop-opacity="0.39"/>
<stop offset="0.68" stop-color="white" stop-opacity="0.68"/>
<stop offset="1" stop-color="white"/>
</linearGradient>
<linearGradient id="paint10_linear_11_361" x1="319.849" y1="369.294" x2="328.92" y2="452.677" gradientUnits="userSpaceOnUse">
<stop offset="0.01"/>
<stop offset="0.13" stop-opacity="0.69"/>
<stop offset="1" stop-opacity="0"/>
</linearGradient>
<linearGradient id="paint11_linear_11_361" x1="394.052" y1="361.352" x2="403.123" y2="444.747" gradientUnits="userSpaceOnUse">
<stop offset="0.02" stop-color="white" stop-opacity="0"/>
<stop offset="0.32" stop-color="white" stop-opacity="0.39"/>
<stop offset="0.68" stop-color="white" stop-opacity="0.68"/>
<stop offset="1" stop-color="white"/>
</linearGradient>
<linearGradient id="paint12_linear_11_361" x1="417.188" y1="362.088" x2="426.109" y2="444.149" gradientUnits="userSpaceOnUse">
<stop offset="0.01"/>
<stop offset="0.13" stop-opacity="0.69"/>
<stop offset="1" stop-opacity="0"/>
</linearGradient>
<linearGradient id="paint13_linear_11_361" x1="295.106" y1="371.975" x2="304.177" y2="455.37" gradientUnits="userSpaceOnUse">
<stop offset="0.02" stop-color="white" stop-opacity="0"/>
<stop offset="0.32" stop-color="white" stop-opacity="0.39"/>
<stop offset="0.68" stop-color="white" stop-opacity="0.68"/>
<stop offset="1" stop-color="white"/>
</linearGradient>
<linearGradient id="paint14_linear_11_361" x1="369.322" y1="363.908" x2="378.393" y2="447.291" gradientUnits="userSpaceOnUse">
<stop offset="0.01"/>
<stop offset="0.13" stop-opacity="0.69"/>
<stop offset="1" stop-opacity="0"/>
</linearGradient>
<linearGradient id="paint15_linear_11_361" x1="270.376" y1="374.668" x2="279.447" y2="458.063" gradientUnits="userSpaceOnUse">
<stop offset="0.01"/>
<stop offset="0.13" stop-opacity="0.69"/>
<stop offset="1" stop-opacity="0"/>
</linearGradient>
<linearGradient id="paint16_linear_11_361" x1="285.663" y1="381.064" x2="345.04" y2="381.064" gradientUnits="userSpaceOnUse">
<stop offset="0.02" stop-color="white" stop-opacity="0"/>
<stop offset="0.32" stop-color="white" stop-opacity="0.39"/>
<stop offset="0.68" stop-color="white" stop-opacity="0.68"/>
<stop offset="1" stop-color="white"/>
</linearGradient>
<linearGradient id="paint17_linear_11_361" x1="335.846" y1="380.951" x2="393.678" y2="380.951" gradientUnits="userSpaceOnUse">
<stop offset="0.02" stop-color="white" stop-opacity="0"/>
<stop offset="0.32" stop-color="white" stop-opacity="0.39"/>
<stop offset="0.68" stop-color="white" stop-opacity="0.68"/>
<stop offset="1" stop-color="white"/>
</linearGradient>
<linearGradient id="paint18_linear_11_361" x1="386.029" y1="380.951" x2="443.861" y2="380.951" gradientUnits="userSpaceOnUse">
<stop offset="0.02" stop-color="white" stop-opacity="0"/>
<stop offset="0.32" stop-color="white" stop-opacity="0.39"/>
<stop offset="0.68" stop-color="white" stop-opacity="0.68"/>
<stop offset="1" stop-color="white"/>
</linearGradient>
<linearGradient id="paint19_linear_11_361" x1="486.819" y1="398.568" x2="421.081" y2="366.427" gradientUnits="userSpaceOnUse">
<stop offset="0.01"/>
<stop offset="0.13" stop-opacity="0.69"/>
<stop offset="1" stop-opacity="0"/>
</linearGradient>
<linearGradient id="paint20_linear_11_361" x1="371.564" y1="622.452" x2="375.52" y2="688.505" gradientUnits="userSpaceOnUse">
<stop offset="0.01"/>
<stop offset="0.13" stop-opacity="0.69"/>
<stop offset="1" stop-opacity="0"/>
</linearGradient>
<linearGradient id="paint21_linear_11_361" x1="251.514" y1="468.076" x2="317.008" y2="468.076" gradientUnits="userSpaceOnUse">
<stop offset="0.02" stop-color="white" stop-opacity="0"/>
<stop offset="0.32" stop-color="white" stop-opacity="0.39"/>
<stop offset="0.68" stop-color="white" stop-opacity="0.68"/>
<stop offset="1" stop-color="white"/>
</linearGradient>
<linearGradient id="paint22_linear_11_361" x1="218.337" y1="537.658" x2="276.344" y2="537.658" gradientUnits="userSpaceOnUse">
<stop offset="0.02" stop-color="white" stop-opacity="0"/>
<stop offset="0.32" stop-color="white" stop-opacity="0.39"/>
<stop offset="0.68" stop-color="white" stop-opacity="0.68"/>
<stop offset="1" stop-color="white"/>
</linearGradient>
<linearGradient id="paint23_linear_11_361" x1="360.053" y1="490.58" x2="380.908" y2="490.58" gradientUnits="userSpaceOnUse">
<stop stop-color="#E5C5D5"/>
<stop offset="0.42" stop-color="#EAD4D1"/>
<stop offset="1" stop-color="#F0E9CB"/>
</linearGradient>
<linearGradient id="paint24_linear_11_361" x1="402.399" y1="507.337" x2="421.013" y2="578.11" gradientUnits="userSpaceOnUse">
<stop stop-opacity="0"/>
<stop offset="0.99"/>
</linearGradient>
<linearGradient id="paint25_linear_11_361" x1="394.992" y1="483.045" x2="425.772" y2="470.687" gradientUnits="userSpaceOnUse">
<stop stop-color="#E5C5D5"/>
<stop offset="0.42" stop-color="#EAD4D1"/>
<stop offset="1" stop-color="#F0E9CB"/>
</linearGradient>
<linearGradient id="paint26_linear_11_361" x1="377.582" y1="533.594" x2="395.335" y2="533.594" gradientUnits="userSpaceOnUse">
<stop stop-color="#E5C5D5"/>
<stop offset="0.42" stop-color="#EAD4D1"/>
<stop offset="1" stop-color="#F0E9CB"/>
</linearGradient>
<linearGradient id="paint27_linear_11_361" x1="395.373" y1="524.916" x2="410.257" y2="644.766" gradientUnits="userSpaceOnUse">
<stop offset="0.01"/>
<stop offset="0.13" stop-opacity="0.69"/>
<stop offset="1" stop-opacity="0"/>
</linearGradient>
<linearGradient id="paint28_linear_11_361" x1="371.702" y1="562.781" x2="330.36" y2="573.688" gradientUnits="userSpaceOnUse">
<stop offset="0.01"/>
<stop offset="0.13" stop-opacity="0.69"/>
<stop offset="1" stop-opacity="0"/>
</linearGradient>
<linearGradient id="paint29_linear_11_361" x1="400.917" y1="568.666" x2="363.575" y2="578.514" gradientUnits="userSpaceOnUse">
<stop offset="0.01"/>
<stop offset="0.13" stop-opacity="0.69"/>
<stop offset="1" stop-opacity="0"/>
</linearGradient>
<linearGradient id="paint30_linear_11_361" x1="422.308" y1="560.624" x2="409.422" y2="593.607" gradientUnits="userSpaceOnUse">
<stop offset="0.01"/>
<stop offset="0.13" stop-opacity="0.69"/>
<stop offset="1" stop-opacity="0"/>
</linearGradient>
<linearGradient id="paint31_linear_11_361" x1="414.746" y1="612.677" x2="401.847" y2="645.66" gradientUnits="userSpaceOnUse">
<stop offset="0.01"/>
<stop offset="0.13" stop-opacity="0.69"/>
<stop offset="1" stop-opacity="0"/>
</linearGradient>
<linearGradient id="paint32_linear_11_361" x1="449.904" y1="554.403" x2="432.714" y2="598.38" gradientUnits="userSpaceOnUse">
<stop offset="0.01"/>
<stop offset="0.13" stop-opacity="0.69"/>
<stop offset="1" stop-opacity="0"/>
</linearGradient>
<linearGradient id="paint33_linear_11_361" x1="439.426" y1="606.056" x2="422.236" y2="650.034" gradientUnits="userSpaceOnUse">
<stop offset="0.01"/>
<stop offset="0.13" stop-opacity="0.69"/>
<stop offset="1" stop-opacity="0"/>
</linearGradient>
<clipPath id="clip0_11_361">
<rect width="647" height="488" fill="white" transform="translate(35.5 265.5)"/>
</clipPath>
</defs>
</svg>
