<svg width="19" height="18" viewBox="0 0 19 18" fill="none" xmlns="http://www.w3.org/2000/svg">
<path d="M13.3645 11.3208H12.5515L12.2633 11.0429C13.2719 9.86964 13.8791 8.34648 13.8791 6.68954C13.8791 2.99485 10.8842 0 7.18954 0C3.49485 0 0.5 2.99485 0.5 6.68954C0.5 10.3842 3.49485 13.3791 7.18954 13.3791C8.84648 13.3791 10.3696 12.7719 11.5429 11.7633L11.8208 12.0515V12.8645L16.9666 18L18.5 16.4666L13.3645 11.3208ZM7.18954 11.3208C4.62693 11.3208 2.55832 9.25214 2.55832 6.68954C2.55832 4.12693 4.62693 2.05832 7.18954 2.05832C9.75214 2.05832 11.8208 4.12693 11.8208 6.68954C11.8208 9.25214 9.75214 11.3208 7.18954 11.3208Z" fill="#8C60E4"/>
</svg>
